<mxfile host="app.diagrams.net" agent="Mozilla/5.0 (Windows NT 10.0; Win64; x64; rv:133.0) Gecko/20100101 Firefox/133.0" version="26.0.2">
  <diagram name="Page 1" id="Page_1">
    <mxGraphModel dx="584" dy="754" grid="1" gridSize="10" guides="1" tooltips="1" connect="1" arrows="1" fold="1" page="1" pageScale="1" pageWidth="850" pageHeight="1100" math="0" shadow="0">
      <root>
        <mxCell id="0" />
        <mxCell id="1" parent="0" />
        <UserObject label="" tags="Background" id="2">
          <mxCell style="vsdxID=1;fillColor=none;gradientColor=none;strokeColor=none;strokeWidth=0;spacingTop=-3;spacingBottom=-3;spacingLeft=-3;spacingRight=-3;points=[[0,0.5,0],[1,0.5,0],[0.5,1,0],[0.5,0,0]];labelBackgroundColor=none;rounded=0;html=1;whiteSpace=wrap;" parent="1" vertex="1">
            <mxGeometry x="1857" y="1248" width="152" height="38" as="geometry" />
          </mxCell>
        </UserObject>
        <mxCell id="3" style="vsdxID=2;fillColor=#ffffff;gradientColor=none;shape=stencil(nZBLDoAgDAVP0z3SIyjeg0SURgWD+Lu9EGL8xBW7N828Ji1gOWs5KeBs9s72aqPGa8AKOCejlSMfEqAALFvrVOfsYprEk4xmTKNd44Y99VhscHY8qU7iQOYhFixbvfhXzlZfYgj3hQG+54dReh2KEw==);strokeColor=#000000;strokeWidth=0;spacingTop=-3;spacingBottom=-3;spacingLeft=-3;spacingRight=-3;points=[[0,0.5,0],[1,0.5,0],[0.5,1,0],[0.5,0,0]];labelBackgroundColor=none;rounded=0;html=1;whiteSpace=wrap;" parent="2" vertex="1">
          <mxGeometry width="152" height="38" as="geometry" />
        </mxCell>
        <UserObject label="" tags="Background" id="4">
          <mxCell style="vsdxID=3;fillColor=none;gradientColor=none;strokeColor=none;strokeWidth=2;spacingTop=-3;spacingBottom=-3;spacingLeft=-3;spacingRight=-3;points=[[0,0.5,0],[1,0.5,0],[0.5,1,0],[0.5,0,0],[0,1.01,0]];labelBackgroundColor=none;rounded=1;html=1;whiteSpace=wrap;" parent="1" vertex="1">
            <mxGeometry x="1580" y="835" width="101" height="50" as="geometry" />
          </mxCell>
        </UserObject>
        <mxCell id="5" style="vsdxID=4;fillColor=#ef8d22;gradientColor=none;shape=stencil(jZPRjoIwEEW/pq/NdGYVeNy4+gN+AZEqzbJgKir69SLThrbumuWpvXOHOdwMglanujxqgXDqbfetr6bqa0FfAtG0tbamH0+C1oJW+87qg+3ObcX3Yzk6ESZFV9yjnm6E0u625q5ZA0kqW3CBO3+6y3PiwPUcuHZz9um2YefubNmquFgoCUtnV6EfBnQE4F/nBERJWRE8DmWgtMEJi4AAPn+BmDuckGVyiTFGCJqS+cl5Mtgb5smNaYOgMA4qsr9S5rL4iDFnAIyi84DhZ1Ds+G80STB/Zo8vjDGSn58CvA/o3SaNh2lheZVN0/C+h/V0wUeJfw5aPwA=);strokeColor=#5e5e5e;strokeWidth=2;spacingTop=-3;spacingBottom=-3;spacingLeft=-3;spacingRight=-3;points=[[0,0.5,0],[1,0.5,0],[0.5,1,0],[0.5,0,0]];labelBackgroundColor=none;rounded=1;html=1;whiteSpace=wrap;" parent="4" vertex="1">
          <mxGeometry width="101" height="50" as="geometry" />
        </mxCell>
        <mxCell id="6" value="&lt;div style=&quot;font-size: 1px&quot;&gt;&lt;p style=&quot;text-align:center;margin-left:0;margin-right:0;margin-top:0px;margin-bottom:0px;text-indent:0;vertical-align:middle;direction:ltr;&quot;&gt;&lt;font style=&quot;font-size:14.11px;font-family:Arial;color:#333333;direction:ltr;letter-spacing:0px;line-height:100%;opacity:1&quot;&gt;Intense Emotions&lt;/font&gt;&lt;/p&gt;&lt;/div&gt;" style="text;vsdxID=3;fillColor=none;gradientColor=none;strokeColor=none;strokeWidth=2;spacingTop=-3;spacingBottom=-3;spacingLeft=-3;spacingRight=-3;points=[[0,0.5,0],[1,0.5,0],[0.5,1,0],[0.5,0,0],[0,1.01,0]];labelBackgroundColor=none;rounded=1;html=1;whiteSpace=wrap;verticalAlign=middle;align=center;overflow=width;;html=1;" parent="4" vertex="1">
          <mxGeometry x="3.17" y="2.38" width="95.25" height="44.45" as="geometry" />
        </mxCell>
        <UserObject label="" tags="Background" id="72">
          <mxCell style="vsdxID=5;edgeStyle=none;startArrow=none;endArrow=block;startSize=5;endSize=5;strokeColor=#5E5E5E;spacingTop=-3;spacingBottom=-3;spacingLeft=-3;spacingRight=-3;verticalAlign=middle;html=1;labelBackgroundColor=none;rounded=1;" parent="1" edge="1">
            <mxGeometry relative="1" as="geometry">
              <mxPoint as="offset" />
              <Array as="points" />
              <mxPoint x="1631" y="887" as="sourcePoint" />
              <mxPoint x="1631" y="911" as="targetPoint" />
            </mxGeometry>
          </mxCell>
        </UserObject>
        <UserObject label="" tags="Background" id="7">
          <mxCell style="vsdxID=6;fillColor=none;gradientColor=none;strokeColor=none;strokeWidth=2;spacingTop=-3;spacingBottom=-3;spacingLeft=-3;spacingRight=-3;points=[[0,0.5,0],[1,0.5,0],[0.5,1,0],[0.5,0,0]];labelBackgroundColor=none;rounded=1;html=1;whiteSpace=wrap;" parent="1" vertex="1">
            <mxGeometry x="1577" y="911" width="107" height="88" as="geometry" />
          </mxCell>
        </UserObject>
        <mxCell id="8" style="vsdxID=7;fillColor=#ffeca9;gradientColor=none;shape=stencil(vZTBcoMgEIafhqOM2ZUazmn6An0CphJlasVB2pg8fTGrVnTSnpob/vuzywe7Mjx0lWo1g7Tzzr7rsyl8xfCZAZim0s74sGJ4ZHg4WadLZz+bgr5bFZyQ3hRd0J7d4IZUubdXc9WkpRx3uaAA7fywX0PFnuJZzkFS+EIK8JwSvZA/pBsKTX6OGdnd6BccclJGiwgZYJ1yFPpE9aZLnPXKG9uMZ6RYrVypk1AuOdWqjELdWet2IUcHrE2zAJI5x6j4QLi/DwRcYgyEXIgISM4ZppzikURifpGpvPwdCTmsifYyIso2RAvG/yfaAP3c5503mnrbzR31FBNtei57JNDfUxQWt5GlYTZ1TRO/jK9HPEj0e8DjNw==);strokeColor=#5e5e5e;strokeWidth=2;spacingTop=-3;spacingBottom=-3;spacingLeft=-3;spacingRight=-3;points=[[0,0.5,0],[1,0.5,0],[0.5,1,0],[0.5,0,0]];labelBackgroundColor=none;rounded=1;html=1;whiteSpace=wrap;" parent="7" vertex="1">
          <mxGeometry width="107" height="88" as="geometry" />
        </mxCell>
        <mxCell id="9" value="&lt;div style=&quot;font-size: 1px&quot;&gt;&lt;p style=&quot;text-align:center;margin-left:0;margin-right:0;margin-top:0px;margin-bottom:0px;text-indent:0;vertical-align:middle;direction:ltr;&quot;&gt;&lt;font style=&quot;font-size:14.11px;font-family:Arial;color:#333333;direction:ltr;letter-spacing:0px;line-height:100%;opacity:1&quot;&gt;Is this a crisis?&lt;/font&gt;&lt;/p&gt;&lt;/div&gt;" style="text;vsdxID=6;fillColor=none;gradientColor=none;strokeColor=none;strokeWidth=2;spacingTop=-3;spacingBottom=-3;spacingLeft=-3;spacingRight=-3;points=[[0,0.5,0],[1,0.5,0],[0.5,1,0],[0.5,0,0]];labelBackgroundColor=none;rounded=1;html=1;whiteSpace=wrap;verticalAlign=middle;align=center;overflow=width;;html=1;" parent="7" vertex="1">
          <mxGeometry x="3.18" y="2.28" width="101.6" height="82.55" as="geometry" />
        </mxCell>
        <UserObject label="" tags="Background" id="10">
          <mxCell style="vsdxID=8;fillColor=none;gradientColor=none;strokeColor=none;strokeWidth=2;spacingTop=-3;spacingBottom=-3;spacingLeft=-3;spacingRight=-3;points=[[0,0.5,0],[1,0.5,0],[0.5,1,0],[0.5,0,0],[-2.28,0.99,0],[0,0.54,0]];labelBackgroundColor=none;rounded=1;html=1;whiteSpace=wrap;" parent="1" vertex="1">
            <mxGeometry x="1580" y="1204" width="101" height="76" as="geometry" />
          </mxCell>
        </UserObject>
        <mxCell id="11" style="vsdxID=9;fillColor=#ffbbb1;gradientColor=none;shape=stencil(vVTRcoMgEPwaHmWAU6OPnTT9gX4BE4kyteKgabRfX/SIFWvTt/oEuwt7y81J4NhVslVEsK635k3ddNFXBJ6JELqplNW9WxE4EThejFWlNdemwH0rnVKwGVEFnuGTWjBpz6/6UyHGKPBDggSefDcfk+PgeaRG3KHwBYXunsnBC4HyGLXWi2PKc0QWyd1pDC4fIjnoLrKml702TcDV0pYqclbRpZZlQHU3pdoVzNfF1bpZpchSKvasd5PEFESYJKGHNEiS7z3LP+TY+GZBP85Xi53jyC6Pfd8zmoGvVCCUJjT10Ch+qsDHy2nuezvCVjWbs6cd/4R9H/u9BMhD/ywJzYGFzuvMu7ZT/7LQdrnTe/DYVcZWH39cA/s7fNinB1PjFvNs4tTqusbRXvPbWXYQ/gfg9AU=);strokeColor=#5e5e5e;strokeWidth=2;spacingTop=-3;spacingBottom=-3;spacingLeft=-3;spacingRight=-3;points=[[0,0.5,0],[1,0.5,0],[0.5,1,0],[0.5,0,0]];labelBackgroundColor=none;rounded=1;html=1;whiteSpace=wrap;" parent="10" vertex="1">
          <mxGeometry width="101" height="76" as="geometry" />
        </mxCell>
        <mxCell id="12" style="vsdxID=10;fillColor=#ffbbb1;gradientColor=none;shape=stencil(vVRLboMwED0NS0bGYwe8rNL0Aj2BFRxilQIypIGevoCnik0TZVev7Pm9N280TnDfn3VnEs76wbUf5mrL4Zzga8K5bc7G2WG+JXhIcH9qnalce2lK/+70HMnZajGlz8mWaM60O77bb+NtDDDLpXf4zM/2a0EcvZ9cE1XgINRqefPBc60FhYIRBGE4ShAgqQKFFJDHJfPfimxM9Wj71LWDHmzbED/vq7WrTDqjpadaV5GrvxrTBeYs5FfbJmhGZcAfoN/tRwKTcT87yEXUj3ok0H+0E2Or7XCOF+dHmZH2BDHROy8AkchyMjHYIbsdGufE/2YgKSJAkSQTbqNWIuzlDhcpb2mP6QgR46tAXgJDGYNvVLgLzhVgEYOHlQksU6BQBad4SkY+FyIe4ZP1mi/rIvsVt3Xt/4HQv1382eQ/DTz8AA==);strokeColor=#5e5e5e;strokeWidth=2;spacingTop=-3;spacingBottom=-3;spacingLeft=-3;spacingRight=-3;points=[[0,0.5,0],[1,0.5,0],[0.5,1,0],[0.5,0,0]];labelBackgroundColor=none;rounded=1;html=1;whiteSpace=wrap;" parent="10" vertex="1">
          <mxGeometry width="101" height="76" as="geometry" />
        </mxCell>
        <mxCell id="13" style="vsdxID=11;fillColor=#ffbbb1;gradientColor=none;shape=stencil(vVRBcoMwDHwNRzy25RA4dpL0A32BJzjgKcWMIQ3p62uQnWLKNLdyslYr70ogEjj0texUwmk/WPOubroc6gSOCee6rZXVgzslcErgcDFWVdZc2xLjTjompzOiSqxhE5tTac9v+kshRgmw/Q4TWPlhPifF0ddQzN0x5Bi+ItXdNGl4KpCsQLL1bEEKjki4DUgQ8xTmwzGVo+5TawY5aNN6c5hrpK1U6sTSSyOrKNXflOoWMFvaa3S76KTICN/U3mxGkDyLm8mIKOJm6OZs/qGVtXKIPfl8tfgKGabz0PYjJjl4rxyh/Y5kHrrz3yzwIyhIITwL1qxZnL5s6GfUldHF89xPGHUw8+g4WBE09hGNYNMFCAJ5LPxzq5eZvljxRJnR5xNYv64/dsgd5l3FLdZNg6u+zK9320H4X4DTNw==);strokeColor=#5e5e5e;strokeWidth=2;spacingTop=-3;spacingBottom=-3;spacingLeft=-3;spacingRight=-3;points=[[0,0.5,0],[1,0.5,0],[0.5,1,0],[0.5,0,0]];labelBackgroundColor=none;rounded=1;html=1;whiteSpace=wrap;" parent="10" vertex="1">
          <mxGeometry width="101" height="76" as="geometry" />
        </mxCell>
        <mxCell id="14" value="&lt;div style=&quot;font-size: 1px&quot;&gt;&lt;p style=&quot;text-align:center;margin-left:0;margin-right:0;margin-top:0px;margin-bottom:0px;text-indent:0;vertical-align:middle;direction:ltr;&quot;&gt;&lt;font style=&quot;font-size:14.11px;font-family:Arial;color:#333333;direction:ltr;letter-spacing:0px;line-height:100%;opacity:1&quot;&gt;Pick a Skill&lt;/font&gt;&lt;/p&gt;&lt;/div&gt;" style="text;vsdxID=8;fillColor=none;gradientColor=none;strokeColor=none;strokeWidth=2;spacingTop=-3;spacingBottom=-3;spacingLeft=-3;spacingRight=-3;points=[[0,0.5,0],[1,0.5,0],[0.5,1,0],[0.5,0,0],[-2.28,0.99,0],[0,0.54,0]];labelBackgroundColor=none;rounded=1;html=1;whiteSpace=wrap;verticalAlign=middle;align=center;overflow=width;;html=1;" parent="10" vertex="1">
          <mxGeometry x="13.33" y="14.4" width="85.09" height="47.63" as="geometry" />
        </mxCell>
        <UserObject label="" tags="Background" id="15">
          <mxCell style="vsdxID=12;fillColor=none;gradientColor=none;strokeColor=none;strokeWidth=2;spacingTop=-3;spacingBottom=-3;spacingLeft=-3;spacingRight=-3;points=[[0,0.5,0],[1,0.5,0],[0.5,1,0],[0.5,0,0]];labelBackgroundColor=none;rounded=1;html=1;whiteSpace=wrap;" parent="1" vertex="1">
            <mxGeometry x="1098" y="1315" width="139" height="133" as="geometry" />
          </mxCell>
        </UserObject>
        <mxCell id="16" style="vsdxID=13;fillColor=#c1e4f7;gradientColor=none;shape=stencil(vZTBcoMgFEW/hqUM8JpB1mn6A/0CphJlSsVBmph+fTHPOqJJds0O3r1wOeCTwL5vdGeIYH0M/tOcbRUbAq9ECNs2JtiYRgQOBPZHH0wd/Hdb4bzTySnYtWIqXMNHt2A6fLzbH4M1RoHLHQq48sufxsRh0lG64EzQEr1v6E1bjSHDnyoU2sPsh6kyWyRkO077D4UebF8EH3W0vs00p0NtihRVHJ2uM6k/G9Mtynx5OGfbBYiSVMgb0TdJgALkJEBfyoyEsztX8wSWdXZi4/LRuyi1puEio9nezpzx/zibjyJlUybuA3FayhyIU7XLgLYX9LTXedwyaXDtTexa6xy29lJf93Iq4X8ADr8=);strokeColor=#5e5e5e;strokeWidth=2;spacingTop=-3;spacingBottom=-3;spacingLeft=-3;spacingRight=-3;points=[[0,0.5,0],[1,0.5,0],[0.5,1,0],[0.5,0,0]];labelBackgroundColor=none;rounded=1;html=1;whiteSpace=wrap;" parent="15" vertex="1">
          <mxGeometry width="139" height="133" as="geometry" />
        </mxCell>
        <mxCell id="17" value="&lt;div style=&quot;font-size: 1px&quot;&gt;&lt;p style=&quot;text-align:left;margin-left:0;margin-right:0;margin-top:0px;margin-bottom:0px;text-indent:0;vertical-align:top;direction:ltr;&quot;&gt;&lt;font style=&quot;font-size:14.11px;font-family:Arial;color:#333333;direction:ltr;letter-spacing:0px;line-height:100%;opacity:1&quot;&gt;&lt;b&gt;Skill 1&lt;br/&gt;&lt;br/&gt;&lt;/b&gt;&lt;/font&gt;&lt;font style=&quot;font-size:14.11px;font-family:Arial;color:#333333;direction:ltr;letter-spacing:0px;line-height:100%;opacity:1&quot;&gt;This template lives on &lt;/font&gt;&lt;font style=&quot;font-size:14.11px;font-family:Arial;color:#333333;direction:ltr;letter-spacing:0px;line-height:100%;opacity:1&quot;&gt;&lt;i&gt;Lucid.app&lt;br/&gt;&lt;/i&gt;&lt;/font&gt;&lt;font style=&quot;font-size:14.11px;font-family:Arial;color:#333333;direction:ltr;letter-spacing:0px;line-height:100%;opacity:1&quot;&gt;&lt;br/&gt;Visit:&lt;br/&gt;https://bit.ly/3yC0hif&lt;/font&gt;&lt;/p&gt;&lt;/div&gt;" style="text;vsdxID=12;fillColor=none;gradientColor=none;strokeColor=none;strokeWidth=2;spacingTop=-3;spacingBottom=-3;spacingLeft=-3;spacingRight=-3;points=[[0,0.5,0],[1,0.5,0],[0.5,1,0],[0.5,0,0]];labelBackgroundColor=none;rounded=1;html=1;whiteSpace=wrap;verticalAlign=top;align=left;overflow=width;;html=1;" parent="15" vertex="1">
          <mxGeometry x="7.62" y="6.84" width="124.46" height="118.75" as="geometry" />
        </mxCell>
        <UserObject label="" tags="Background" id="18">
          <mxCell style="vsdxID=14;fillColor=none;gradientColor=none;strokeColor=none;strokeWidth=2;spacingTop=-3;spacingBottom=-3;spacingLeft=-3;spacingRight=-3;points=[[0,0.5,0],[1,0.5,0],[0.5,1,0],[0.5,0,0]];labelBackgroundColor=none;rounded=1;html=1;whiteSpace=wrap;" parent="1" vertex="1">
            <mxGeometry x="1582" y="1499" width="98" height="85" as="geometry" />
          </mxCell>
        </UserObject>
        <mxCell id="19" style="vsdxID=15;fillColor=#ffeca9;gradientColor=none;shape=stencil(vZTRcoMgEEW/hkcZ3BVtn9P0B/oFTCXK1IqDtDH5+oJrOhra9Kl5w3svyx6YleFubNWgGYjRO/umj6b2LcMnBmD6Vjvjw4rhnuHuYJ1unP3oa/oeVEiCmBVd0548pkEo9/pizpo0wTGvJBm0891+xhMn8ouKI5J9IgV4Wc7CM+VDuXjQJc/JFG6JlzwHUpaEDAWqnyuKKVOTGTNnvfLG9kuL5HXKNToLp2WHTjUbazxqPazkfN1fZ/oVz2PCEwlvAOF3/xeigudyQ5TWlPdESi80NgS33ghwiyR5iRuk9NljzeJeSAlRZHz4nQj4FRByUW6Akoorwv/n+XuKwmIeWRpm03U08Wv/esSDRL8H3H8B);strokeColor=#5e5e5e;strokeWidth=2;spacingTop=-3;spacingBottom=-3;spacingLeft=-3;spacingRight=-3;points=[[0,0.5,0],[1,0.5,0],[0.5,1,0],[0.5,0,0]];labelBackgroundColor=none;rounded=1;html=1;whiteSpace=wrap;" parent="18" vertex="1">
          <mxGeometry width="98" height="85" as="geometry" />
        </mxCell>
        <mxCell id="20" value="&lt;div style=&quot;font-size: 1px&quot;&gt;&lt;p style=&quot;text-align:center;margin-left:0;margin-right:0;margin-top:0px;margin-bottom:0px;text-indent:0;vertical-align:middle;direction:ltr;&quot;&gt;&lt;font style=&quot;font-size:14.11px;font-family:Arial;color:#333333;direction:ltr;letter-spacing:0px;line-height:100%;opacity:1&quot;&gt;Crisis Resolved?&lt;/font&gt;&lt;/p&gt;&lt;/div&gt;" style="text;vsdxID=14;fillColor=none;gradientColor=none;strokeColor=none;strokeWidth=2;spacingTop=-3;spacingBottom=-3;spacingLeft=-3;spacingRight=-3;points=[[0,0.5,0],[1,0.5,0],[0.5,1,0],[0.5,0,0]];labelBackgroundColor=none;rounded=1;html=1;whiteSpace=wrap;verticalAlign=middle;align=center;overflow=width;;html=1;" parent="18" vertex="1">
          <mxGeometry x="2.7250877192982457" y="2.25" width="92.79912280701755" height="80.01" as="geometry" />
        </mxCell>
        <UserObject label="" tags="Background" id="21">
          <mxCell style="vsdxID=16;fillColor=none;gradientColor=none;strokeColor=none;strokeWidth=2;spacingTop=-3;spacingBottom=-3;spacingLeft=-3;spacingRight=-3;points=[[0,0.5,0],[1,0.5,0],[0.5,1,0],[0.5,0,0],[0,0.25,0]];labelBackgroundColor=none;rounded=1;html=1;whiteSpace=wrap;" parent="1" vertex="1">
            <mxGeometry x="1578" y="1623" width="106" height="50" as="geometry" />
          </mxCell>
        </UserObject>
        <mxCell id="22" style="vsdxID=17;fillColor=#5abaa7;gradientColor=none;shape=stencil(jVNbbsIwEDyNf631rsDkE1G4ACeIiEuspgkyoQ2cviHriDXuy1/27Ix2PF4r2pzr8uQUwrkP3Zv79FVfK3pRiL6tXfD9uFO0VbR57YI7hu7SVnw+lSMTYUJcxRpzZyOU4bD3N8cYaDJ2wQVWvncf944D11egAbl8jYrptGPy4RKYbbhYGA020o3kw4CRUehiZkQIUZMtxIp+BsolEVoIF7D+zojQRMhavcQnM8JuhAxA2l0mQCnn0b7xrQgNs9ASRe52lZl92MAkxtmmvAyljP9GBGnHH18BM4+ppbk/5kH9HtMfszVupinm+fZNw59A1p+nfoT4x9D2Cw==);strokeColor=#5e5e5e;strokeWidth=2;spacingTop=-3;spacingBottom=-3;spacingLeft=-3;spacingRight=-3;points=[[0,0.5,0],[1,0.5,0],[0.5,1,0],[0.5,0,0]];labelBackgroundColor=none;rounded=1;html=1;whiteSpace=wrap;" parent="21" vertex="1">
          <mxGeometry width="106" height="50" as="geometry" />
        </mxCell>
        <mxCell id="23" value="&lt;div style=&quot;font-size: 1px&quot;&gt;&lt;p style=&quot;text-align:center;margin-left:0;margin-right:0;margin-top:0px;margin-bottom:0px;text-indent:0;vertical-align:middle;direction:ltr;&quot;&gt;&lt;font style=&quot;font-size:14.11px;font-family:Arial;color:#333333;direction:ltr;letter-spacing:0px;line-height:100%;opacity:1&quot;&gt;End of Crisis&lt;/font&gt;&lt;/p&gt;&lt;/div&gt;" style="text;vsdxID=16;fillColor=none;gradientColor=none;strokeColor=none;strokeWidth=2;spacingTop=-3;spacingBottom=-3;spacingLeft=-3;spacingRight=-3;points=[[0,0.5,0],[1,0.5,0],[0.5,1,0],[0.5,0,0],[0,0.25,0]];labelBackgroundColor=none;rounded=1;html=1;whiteSpace=wrap;verticalAlign=middle;align=center;overflow=width;;html=1;" parent="21" vertex="1">
          <mxGeometry x="3.17" y="2.38" width="100.33" height="44.45" as="geometry" />
        </mxCell>
        <UserObject label="" tags="Background" id="73">
          <mxCell style="vsdxID=18;edgeStyle=none;startArrow=none;endArrow=block;startSize=5;endSize=5;strokeColor=#5E5E5E;spacingTop=-3;spacingBottom=-3;spacingLeft=-3;spacingRight=-3;verticalAlign=middle;html=1;labelBackgroundColor=#ffffff;rounded=1;" parent="1" edge="1">
            <mxGeometry relative="1" as="geometry">
              <Array as="points">
                <mxPoint x="1631" y="1602.74" />
                <mxPoint x="1631" y="1602.74" />
              </Array>
              <mxPoint x="1631" y="1584" as="sourcePoint" />
              <mxPoint x="1631" y="1622" as="targetPoint" />
            </mxGeometry>
          </mxCell>
        </UserObject>
        <mxCell id="74" value="&lt;div style=&quot;font-size: 1px&quot;&gt;&lt;p style=&quot;text-align:left;margin-left:0;margin-right:0;margin-top:0px;margin-bottom:0px;text-indent:0;vertical-align:middle;direction:ltr;&quot;&gt;&lt;font style=&quot;font-size:14.11px;font-family:Arial;color:#333333;direction:ltr;letter-spacing:0px;line-height:100%;opacity:1&quot;&gt;&lt;b&gt;Yes&lt;/b&gt;&lt;/font&gt;&lt;/p&gt;&lt;/div&gt;" style="text;vsdxID=18;edgeStyle=none;startArrow=none;endArrow=block;startSize=5;endSize=5;strokeColor=none;spacingTop=-3;spacingBottom=-3;spacingLeft=-3;spacingRight=-3;verticalAlign=middle;html=1;labelBackgroundColor=#ffffff;rounded=1;align=left;overflow=width;fillColor=none;gradientColor=none;whiteSpace=wrap;;html=1;" parent="73" vertex="1">
          <mxGeometry width="24.31" height="16.94" relative="1" as="geometry">
            <mxPoint x="-12.155" y="-11.47" as="offset" />
          </mxGeometry>
        </mxCell>
        <UserObject label="" tags="Background" id="24">
          <mxCell style="vsdxID=19;fillColor=none;gradientColor=none;strokeColor=none;strokeWidth=2;spacingTop=-3;spacingBottom=-3;spacingLeft=-3;spacingRight=-3;points=[[0,0.5,0],[1,0.5,0],[0.5,1,0],[0.5,0,0]];labelBackgroundColor=none;rounded=1;html=1;whiteSpace=wrap;" parent="1" vertex="1">
            <mxGeometry x="1085" y="886" width="292" height="70" as="geometry" />
          </mxCell>
        </UserObject>
        <mxCell id="25" style="vsdxID=20;fillColor=#FFFFFF;gradientColor=none;shape=stencil(vZRNcoQgEIVPw1IKaX/G9WRygZyAioxSIWIhyZicPmhTU8LEWbqDfo9+fmhL4Dz1YpSEs8lZ8yFvqnU9gRfCuRp6aZXzKwIXAuersbKz5mtocT8K7+RsrcgWz+SLmzNh39/Ur8Qao5DXJQp48tN8L4lz0FH6wV1JoV4Lr+j1rZaQ4M0pa9Bug7+gofXdAVG/0H3OxKymzBonnDJDpGlhO5n5oOyqRRdJ003KcVPOt4+m1bDBaE60/id5BwMSjJLWRczBdu7lAJQ0uyloVT2lSWEgfikPd3NPOAAm+SB8NGWwT8PoqYpxgJYxzuPtwFE0z4fFL9apxHlVWuNQb/V0in0J/wBw+QM=);strokeColor=#5e5e5e;strokeWidth=2;spacingTop=-3;spacingBottom=-3;spacingLeft=-3;spacingRight=-3;points=[[0,0.5,0],[1,0.5,0],[0.5,1,0],[0.5,0,0]];labelBackgroundColor=none;rounded=1;html=1;whiteSpace=wrap;" parent="24" vertex="1">
          <mxGeometry width="292" height="70" as="geometry" />
        </mxCell>
        <mxCell id="26" value="&lt;div style=&quot;font-size: 1px&quot;&gt;&lt;p style=&quot;text-align:left;margin-left:0;margin-right:0;margin-top:0px;margin-bottom:0px;text-indent:0;vertical-align:top;direction:ltr;&quot;&gt;&lt;font style=&quot;font-size:14.11px;font-family:Arial;color:#333333;direction:ltr;letter-spacing:0px;line-height:100%;opacity:1&quot;&gt;&lt;b&gt;A Crisis is:&lt;br/&gt;&lt;/b&gt;&lt;/font&gt;&lt;font style=&quot;font-size:14.11px;font-family:Arial;color:#333333;direction:ltr;letter-spacing:0px;line-height:100%;opacity:1&quot;&gt;* Highly Stressful&lt;br/&gt;* Short-Term&lt;br/&gt;* Has intense pressure to be resolved now&lt;/font&gt;&lt;/p&gt;&lt;/div&gt;" style="text;vsdxID=19;fillColor=none;gradientColor=none;strokeColor=none;strokeWidth=2;spacingTop=-3;spacingBottom=-3;spacingLeft=-3;spacingRight=-3;points=[[0,0.5,0],[1,0.5,0],[0.5,1,0],[0.5,0,0]];labelBackgroundColor=none;rounded=1;html=1;whiteSpace=wrap;verticalAlign=top;align=left;overflow=width;;html=1;" parent="24" vertex="1">
          <mxGeometry x="3.17" y="2.27" width="285.75" height="64.77" as="geometry" />
        </mxCell>
        <UserObject label="" tags="Background" id="27">
          <mxCell style="vsdxID=21;fillColor=none;gradientColor=none;strokeColor=none;strokeWidth=2;spacingTop=-3;spacingBottom=-3;spacingLeft=-3;spacingRight=-3;points=[[0,0.5,0],[1,0.5,0],[0.5,1,0],[0.5,0,0]];labelBackgroundColor=none;rounded=1;html=1;whiteSpace=wrap;" parent="1" vertex="1">
            <mxGeometry x="1085" y="972" width="457" height="114" as="geometry" />
          </mxCell>
        </UserObject>
        <mxCell id="28" style="vsdxID=22;fillColor=#FFFFFF;gradientColor=none;shape=stencil(vVTBdoMgEPwajvKEbUTOafID+QJeJcorFR/axPbri66mYmpuzQ1mhh1mZSWwbyvVaMLTtvPuXV9N0VUEXgnnpq60N11YETgQ2J+d16V3n3WB+0YFJU9HRBd4hg1qnir/djLfGrGUAhM7JPDkh7sMjv3EI/WFO6AAI3BEbSg1mMxaKlDtJzmnQiJyU+QQFZzK94nqTZt416nOuDrirPKlToJTcraqjKj2qnWzgNnybtbUixxSUib+sN4IIlmcBGj2EiVh6UZnnpBl7S0zmolHaXK5TrPLozT33bl5/H+cu0cxe2+kmb/E7ytbpdnqzjOyPByXsBjnEifWWItjveTXcxwg/AfA4Qc=);strokeColor=#5e5e5e;strokeWidth=2;spacingTop=-3;spacingBottom=-3;spacingLeft=-3;spacingRight=-3;points=[[0,0.5,0],[1,0.5,0],[0.5,1,0],[0.5,0,0]];labelBackgroundColor=none;rounded=1;html=1;whiteSpace=wrap;" parent="27" vertex="1">
          <mxGeometry width="457" height="114" as="geometry" />
        </mxCell>
        <mxCell id="29" value="&lt;div style=&quot;font-size: 1px&quot;&gt;&lt;p style=&quot;text-align:left;margin-left:0;margin-right:0;margin-top:0px;margin-bottom:0px;text-indent:0;vertical-align:top;direction:ltr;&quot;&gt;&lt;font style=&quot;font-size:14.11px;font-family:Arial;color:#333333;direction:ltr;letter-spacing:0px;line-height:100%;opacity:1&quot;&gt;&lt;b&gt;Use Crisis Survival Skills when:&lt;/b&gt;&lt;/font&gt;&lt;font style=&quot;font-size:14.11px;font-family:Arial;color:#333333;direction:ltr;letter-spacing:0px;line-height:100%;opacity:1&quot;&gt;&lt;br/&gt;1. Pain is intense and cannot be helped quickly.&lt;br/&gt;2. You want to act on your emotions -- probably making things worse.&lt;br/&gt;3. Emotions threaten to overwhelm -- you want to stay skillful. &lt;br/&gt;4. You are already overwhelmed, but demands must be met.&lt;br/&gt;5. Emotions are extreme, the problems cannot be solved quickly.&lt;/font&gt;&lt;/p&gt;&lt;/div&gt;" style="text;vsdxID=21;fillColor=none;gradientColor=none;strokeColor=none;strokeWidth=2;spacingTop=-3;spacingBottom=-3;spacingLeft=-3;spacingRight=-3;points=[[0,0.5,0],[1,0.5,0],[0.5,1,0],[0.5,0,0]];labelBackgroundColor=none;rounded=1;html=1;whiteSpace=wrap;verticalAlign=top;align=left;overflow=width;;html=1;" parent="27" vertex="1">
          <mxGeometry x="3.17" y="2.88" width="450.85" height="107.95" as="geometry" />
        </mxCell>
        <UserObject label="" tags="Background" id="75">
          <mxCell style="vsdxID=23;edgeStyle=none;startArrow=none;endArrow=block;startSize=5;endSize=5;strokeColor=#5E5E5E;spacingTop=-3;spacingBottom=-3;spacingLeft=-3;spacingRight=-3;verticalAlign=middle;html=1;labelBackgroundColor=#ffffff;rounded=1;" parent="1" edge="1">
            <mxGeometry relative="1" as="geometry">
              <Array as="points" />
              <mxPoint x="1684" y="956" as="sourcePoint" />
              <mxPoint x="1784" y="956" as="targetPoint" />
            </mxGeometry>
          </mxCell>
        </UserObject>
        <mxCell id="76" value="&lt;div style=&quot;font-size: 1px&quot;&gt;&lt;p style=&quot;text-align:left;margin-left:0;margin-right:0;margin-top:0px;margin-bottom:0px;text-indent:0;vertical-align:middle;direction:ltr;&quot;&gt;&lt;font style=&quot;font-size:14.11px;font-family:Arial;color:#333333;direction:ltr;letter-spacing:0px;line-height:100%;opacity:1&quot;&gt;&lt;b&gt;No&lt;/b&gt;&lt;/font&gt;&lt;/p&gt;&lt;/div&gt;" style="text;vsdxID=23;edgeStyle=none;startArrow=none;endArrow=block;startSize=5;endSize=5;strokeColor=none;spacingTop=-3;spacingBottom=-3;spacingLeft=-3;spacingRight=-3;verticalAlign=middle;html=1;labelBackgroundColor=#ffffff;rounded=1;align=left;overflow=width;fillColor=none;gradientColor=none;whiteSpace=wrap;;html=1;" parent="75" vertex="1">
          <mxGeometry width="18.75" height="16.94" relative="1" as="geometry">
            <mxPoint x="-9.375" y="-7.470000000000001" as="offset" />
          </mxGeometry>
        </mxCell>
        <UserObject label="" tags="Background" id="30">
          <mxCell style="vsdxID=24;fillColor=none;gradientColor=none;strokeColor=none;strokeWidth=2;spacingTop=-3;spacingBottom=-3;spacingLeft=-3;spacingRight=-3;points=[[0,0.5,0],[1,0.5,0],[0.5,1,0],[0.5,0,0]];labelBackgroundColor=none;rounded=1;html=1;whiteSpace=wrap;" parent="1" vertex="1">
            <mxGeometry x="1784" y="1036" width="203" height="131" as="geometry" />
          </mxCell>
        </UserObject>
        <mxCell id="31" style="vsdxID=25;fillColor=#c92d39;gradientColor=none;shape=stencil(jZPRboMwDEW/Jq+RY6sNPFZd9wP7AlSyEY1BldKO7etHcRBx2k3jKVxfcw/GKNqfm+rkFMJ5CP27+/T10Ch6Uoi+a1zww3RSdFC0f+2Dewv9pav5/lRNToRZcTX3mJsboQrHF//tWANNxm64wJ0f/fWWOHK9AK59Rft898zO4yWw1XCxNBoo2k3qhxEjASyPiwKiJlsmV0QZKW+IwiYhgN0DiLUjCtbqLUqMFHQl02BkeJFlJ541v/VdMi6U48o77nELXVrJK0hQjHGBTV+JpOO/Y8qG9Ot3wDtMibTk5wB5vhzTX1s1Hebl5bX2bcu7n9bzZZ8k/lHo8AM=);strokeColor=#5e5e5e;strokeWidth=2;spacingTop=-3;spacingBottom=-3;spacingLeft=-3;spacingRight=-3;points=[[0,0.5,0],[1,0.5,0],[0.5,1,0],[0.5,0,0]];labelBackgroundColor=none;rounded=1;html=1;whiteSpace=wrap;" parent="30" vertex="1">
          <mxGeometry width="203" height="131" as="geometry" />
        </mxCell>
        <mxCell id="32" value="&lt;div style=&quot;font-size: 1px&quot;&gt;&lt;p style=&quot;text-align:center;margin-left:0;margin-right:0;margin-top:0px;margin-bottom:0px;text-indent:0;vertical-align:middle;direction:ltr;&quot;&gt;&lt;font style=&quot;font-size:14.11px;font-family:Arial;color:#333333;direction:ltr;letter-spacing:0px;line-height:100%;opacity:1&quot;&gt;Put people to call in here, in an ordered list.&lt;br/&gt;&lt;br/&gt;Include suicide helpline numbers for your country.&lt;/font&gt;&lt;/p&gt;&lt;/div&gt;" style="text;vsdxID=24;fillColor=none;gradientColor=none;strokeColor=none;strokeWidth=2;spacingTop=-3;spacingBottom=-3;spacingLeft=-3;spacingRight=-3;points=[[0,0.5,0],[1,0.5,0],[0.5,1,0],[0.5,0,0]];labelBackgroundColor=none;rounded=1;html=1;whiteSpace=wrap;verticalAlign=middle;align=center;overflow=width;;html=1;" parent="30" vertex="1">
          <mxGeometry x="3.17" y="2.23" width="196.85" height="125.73" as="geometry" />
        </mxCell>
        <UserObject label="" tags="Background" id="77">
          <mxCell style="vsdxID=26;edgeStyle=none;startArrow=none;endArrow=block;startSize=5;endSize=5;strokeColor=#5E5E5E;spacingTop=-3;spacingBottom=-3;spacingLeft=-3;spacingRight=-3;verticalAlign=middle;html=1;labelBackgroundColor=#ffffff;rounded=1;" parent="1" edge="1">
            <mxGeometry relative="1" as="geometry">
              <Array as="points">
                <mxPoint x="1753.27" y="1102" />
                <mxPoint x="1753.27" y="1102" />
              </Array>
              <mxPoint x="1696" y="1102" as="sourcePoint" />
              <mxPoint x="1782" y="1102" as="targetPoint" />
            </mxGeometry>
          </mxCell>
        </UserObject>
        <mxCell id="78" value="&lt;div style=&quot;font-size: 1px&quot;&gt;&lt;p style=&quot;text-align:left;margin-left:0;margin-right:0;margin-top:0px;margin-bottom:0px;text-indent:0;vertical-align:middle;direction:ltr;&quot;&gt;&lt;font style=&quot;font-size:14.11px;font-family:Arial;color:#333333;direction:ltr;letter-spacing:0px;line-height:100%;opacity:1&quot;&gt;&lt;b&gt;I Can&amp;prime;t !&lt;/b&gt;&lt;/font&gt;&lt;/p&gt;&lt;/div&gt;" style="text;vsdxID=26;edgeStyle=none;startArrow=none;endArrow=block;startSize=5;endSize=5;strokeColor=none;spacingTop=-3;spacingBottom=-3;spacingLeft=-3;spacingRight=-3;verticalAlign=middle;html=1;labelBackgroundColor=#ffffff;rounded=1;align=left;overflow=width;fillColor=none;gradientColor=none;whiteSpace=wrap;;html=1;" parent="77" vertex="1">
          <mxGeometry width="51" height="16.94" relative="1" as="geometry">
            <mxPoint x="-30.5" y="8.53" as="offset" />
          </mxGeometry>
        </mxCell>
        <UserObject label="" tags="Background" id="79">
          <mxCell style="vsdxID=27;edgeStyle=none;startArrow=none;endArrow=block;startSize=5;endSize=5;strokeColor=#5E5E5E;spacingTop=-3;spacingBottom=-3;spacingLeft=-3;spacingRight=-3;verticalAlign=middle;html=1;labelBackgroundColor=#ffffff;rounded=1;" parent="1" edge="1">
            <mxGeometry relative="1" as="geometry">
              <Array as="points">
                <mxPoint x="1085.16" y="1541" />
                <mxPoint x="1085.16" y="1101.39" />
              </Array>
              <mxPoint x="1575" y="1541" as="sourcePoint" />
              <mxPoint x="1567" y="1102" as="targetPoint" />
            </mxGeometry>
          </mxCell>
        </UserObject>
        <mxCell id="80" value="&lt;div style=&quot;font-size: 1px&quot;&gt;&lt;p style=&quot;text-align:left;margin-left:0;margin-right:0;margin-top:0px;margin-bottom:0px;text-indent:0;vertical-align:middle;direction:ltr;&quot;&gt;&lt;font style=&quot;font-size:14.11px;font-family:Arial;color:#333333;direction:ltr;letter-spacing:0px;line-height:100%;opacity:1&quot;&gt;&lt;b&gt;No&lt;/b&gt;&lt;/font&gt;&lt;/p&gt;&lt;/div&gt;" style="text;vsdxID=27;edgeStyle=none;startArrow=none;endArrow=block;startSize=5;endSize=5;strokeColor=none;spacingTop=-3;spacingBottom=-3;spacingLeft=-3;spacingRight=-3;verticalAlign=middle;html=1;labelBackgroundColor=#ffffff;rounded=1;align=left;overflow=width;fillColor=none;gradientColor=none;whiteSpace=wrap;;html=1;" parent="79" vertex="1">
          <mxGeometry width="18.75" height="16.94" relative="1" as="geometry">
            <mxPoint x="428.625" y="208.53" as="offset" />
          </mxGeometry>
        </mxCell>
        <UserObject label="" tags="Background" id="33">
          <mxCell style="vsdxID=28;fillColor=none;gradientColor=none;strokeColor=none;strokeWidth=2;spacingTop=-3;spacingBottom=-3;spacingLeft=-3;spacingRight=-3;points=[[0,0.5,0],[1,0.5,0],[0.5,1,0],[0.5,0,0]];labelBackgroundColor=none;rounded=1;html=1;whiteSpace=wrap;" parent="1" vertex="1">
            <mxGeometry x="1785" y="930" width="101" height="50" as="geometry" />
          </mxCell>
        </UserObject>
        <mxCell id="34" style="vsdxID=29;fillColor=#5abaa7;gradientColor=none;shape=stencil(jZPRjoIwEEW/pq/NdGYVeNy4+gN+AZEqzbJgKir69SLThrbumuWpvXOHOdwMglanujxqgXDqbfetr6bqa0FfAtG0tbamH0+C1oJW+87qg+3ObcX3Yzk6ESZFV9yjnm6E0u625q5ZA0kqW3CBO3+6y3PiwPUcuHZz9um2YefubNmquFgoCUtnV6EfBnQE4F/nBERJWRE8DmWgtMEJi4AAPn+BmDuckGVyiTFGCJqS+cl5Mtgb5smNaYOgMA4qsr9S5rL4iDFnAIyi84DhZ1Ds+G80STB/Zo8vjDGSn58CvA/o3SaNh2lheZVN0/C+h/V0wUeJfw5aPwA=);strokeColor=#5e5e5e;strokeWidth=2;spacingTop=-3;spacingBottom=-3;spacingLeft=-3;spacingRight=-3;points=[[0,0.5,0],[1,0.5,0],[0.5,1,0],[0.5,0,0]];labelBackgroundColor=none;rounded=1;html=1;whiteSpace=wrap;" parent="33" vertex="1">
          <mxGeometry width="101" height="50" as="geometry" />
        </mxCell>
        <mxCell id="35" value="&lt;div style=&quot;font-size: 1px&quot;&gt;&lt;p style=&quot;text-align:center;margin-left:0;margin-right:0;margin-top:0px;margin-bottom:0px;text-indent:0;vertical-align:middle;direction:ltr;&quot;&gt;&lt;font style=&quot;font-size:14.11px;font-family:Arial;color:#333333;direction:ltr;letter-spacing:0px;line-height:100%;opacity:1&quot;&gt;Use Other Skills&lt;/font&gt;&lt;/p&gt;&lt;/div&gt;" style="text;vsdxID=28;fillColor=none;gradientColor=none;strokeColor=none;strokeWidth=2;spacingTop=-3;spacingBottom=-3;spacingLeft=-3;spacingRight=-3;points=[[0,0.5,0],[1,0.5,0],[0.5,1,0],[0.5,0,0]];labelBackgroundColor=none;rounded=1;html=1;whiteSpace=wrap;verticalAlign=middle;align=center;overflow=width;;html=1;" parent="33" vertex="1">
          <mxGeometry x="3.17" y="2.38" width="95.25" height="44.45" as="geometry" />
        </mxCell>
        <UserObject label="" tags="Background" id="36">
          <mxCell style="vsdxID=30;fillColor=none;gradientColor=none;fillOpacity=0;strokeOpacity=0;strokeWidth=2;spacingTop=-3;spacingBottom=-3;spacingLeft=-3;spacingRight=-3;points=[[0,0.5,0],[1,0.5,0],[0.5,1,0],[0.5,0,0]];labelBackgroundColor=none;rounded=1;strokeColor=none;html=1;whiteSpace=wrap;" parent="1" vertex="1">
            <mxGeometry x="1788" y="1612" width="406" height="74" as="geometry" />
          </mxCell>
        </UserObject>
        <mxCell id="37" style="vsdxID=31;fillColor=#ffffff;gradientColor=none;fillOpacity=0;strokeOpacity=0;shape=stencil(vVTLkoMgEPwajlK8jOGczf7AfgEViVJhxUJ24+7XBx2TEk1yS24w3UzTMwyI77patRox0gXvTvpsylAj/oEYM02tvQlxhfge8d3ReV1599OUsG9VZDIyRnQJZ+jAZkT5w5f51xAjmNMiBwBOfrvfQbGfcID+YJdjKsbAJ3BjqkHkysWFBLqf+CJmh8iNIkWSccrfZ6o3XeZdUMG4JsGs8pXOolR2tKpKoO6sdTsL0/nlrGlmRqTEZHNH+q4TikmROsnxdps4oeRBad7gZaktxfV2D/oi6dINSfuyrs5N4/V2Vo8iamPCnz60RXsEZjx9aKsCbd5m5+nIxMU4mzC1xloY7Tm+nOUYgn+A7y8=);strokeWidth=2;spacingTop=-3;spacingBottom=-3;spacingLeft=-3;spacingRight=-3;points=[[0,0.5,0],[1,0.5,0],[0.5,1,0],[0.5,0,0]];labelBackgroundColor=none;rounded=1;html=1;whiteSpace=wrap;" parent="36" vertex="1">
          <mxGeometry width="406" height="74" as="geometry" />
        </mxCell>
        <mxCell id="38" value="&lt;div style=&quot;font-size: 1px&quot;&gt;&lt;p style=&quot;text-align:center;margin-left:0;margin-right:0;margin-top:0px;margin-bottom:0px;text-indent:0;vertical-align:middle;direction:ltr;&quot;&gt;&lt;font style=&quot;font-size:14.11px;font-family:Arial;color:#333333;direction:ltr;letter-spacing:0px;line-height:100%;opacity:1&quot;&gt;&lt;i&gt;DBT Skills Training Handouts and Worksheets -- &lt;/i&gt;&lt;/font&gt;&lt;font style=&quot;font-size:14.11px;font-family:Arial;color:#333333;direction:ltr;letter-spacing:0px;line-height:100%;opacity:1&quot;&gt;pg 325&lt;br/&gt;Content via Fair Use Copyright -- Dr. Marsha Linehan&lt;br/&gt;Flowchart by Ariadne - v1.13 - Jul 8, 2024 - CC0&lt;/font&gt;&lt;/p&gt;&lt;/div&gt;" style="text;vsdxID=30;fillColor=none;gradientColor=none;fillOpacity=0;strokeOpacity=0;strokeWidth=2;spacingTop=-3;spacingBottom=-3;spacingLeft=-3;spacingRight=-3;points=[[0,0.5,0],[1,0.5,0],[0.5,1,0],[0.5,0,0]];labelBackgroundColor=none;rounded=1;strokeColor=none;html=1;whiteSpace=wrap;verticalAlign=middle;align=center;overflow=width;;html=1;" parent="36" vertex="1">
          <mxGeometry x="3.17" y="3.09" width="400.05" height="67.95" as="geometry" />
        </mxCell>
        <UserObject label="" tags="Background" id="39">
          <mxCell style="vsdxID=32;fillColor=none;gradientColor=none;fillOpacity=0;strokeOpacity=0;strokeWidth=2;spacingTop=-3;spacingBottom=-3;spacingLeft=-3;spacingRight=-3;points=[[0,0.5,0],[1,0.5,0],[0.5,1,0],[0.5,0,0]];labelBackgroundColor=none;rounded=1;strokeColor=none;html=1;whiteSpace=wrap;" parent="1" vertex="1">
            <mxGeometry x="1076" y="829" width="478" height="63" as="geometry" />
          </mxCell>
        </UserObject>
        <mxCell id="40" style="vsdxID=33;fillColor=#ffffff;gradientColor=none;fillOpacity=0;strokeOpacity=0;shape=stencil(vZNLcoMwDIZP4yUePzCPdZpcICfwFAc8pZgxbkN6+hoEGZQJ3TU7S/qtn09YRB6GRveGCDYE7z7M1VahIfKNCGG7xngb4onII5GHi/Om9u6rqyDudVQKNmdMBXf4pBZM+/ez/TGQY1TyXEEBbn6678lxXOpQukGUzdEJhLHP5LAKaZaD1i9iRZmEzF1SoG5L7zHRox0S74IO1nWo1mpfmyQ6JZdW16g0XI3pN2m+/bbWdhuIsqQrPLLeASkVBskpVwiEs2djeQFINKYMk5TpXyhFilEyin/JNBnU7o72/zCPz2G13kFRBUZJaYpf17OxvAJjf0PiYd5D2FDbtrDG2/rj3sYU7Lw8/gI=);strokeWidth=2;spacingTop=-3;spacingBottom=-3;spacingLeft=-3;spacingRight=-3;points=[[0,0.5,0],[1,0.5,0],[0.5,1,0],[0.5,0,0]];labelBackgroundColor=none;rounded=1;html=1;whiteSpace=wrap;" parent="39" vertex="1">
          <mxGeometry width="478" height="63" as="geometry" />
        </mxCell>
        <mxCell id="41" value="&lt;div style=&quot;font-size: 1px&quot;&gt;&lt;p style=&quot;text-align:center;margin-left:0;margin-right:0;margin-top:0px;margin-bottom:0px;text-indent:0;vertical-align:middle;direction:ltr;&quot;&gt;&lt;font style=&quot;font-size:38.1px;font-family:Arial;color:#333333;direction:ltr;letter-spacing:0px;line-height:100%;opacity:1&quot;&gt;&lt;b&gt;DBT Crisis Survival Skills&lt;/b&gt;&lt;/font&gt;&lt;/p&gt;&lt;/div&gt;" style="text;vsdxID=32;fillColor=none;gradientColor=none;fillOpacity=0;strokeOpacity=0;strokeWidth=2;spacingTop=-3;spacingBottom=-3;spacingLeft=-3;spacingRight=-3;points=[[0,0.5,0],[1,0.5,0],[0.5,1,0],[0.5,0,0]];labelBackgroundColor=none;rounded=1;strokeColor=none;html=1;whiteSpace=wrap;verticalAlign=middle;align=center;overflow=width;;html=1;" parent="39" vertex="1">
          <mxGeometry x="3.18" y="2.68" width="472.44" height="57.15" as="geometry" />
        </mxCell>
        <UserObject label="" tags="Background" id="81">
          <mxCell style="vsdxID=34;edgeStyle=none;startArrow=none;endArrow=block;startSize=5;endSize=5;strokeColor=#5E5E5E;spacingTop=-3;spacingBottom=-3;spacingLeft=-3;spacingRight=-3;verticalAlign=middle;html=1;labelBackgroundColor=none;rounded=1;" parent="1" edge="1">
            <mxGeometry relative="1" as="geometry">
              <mxPoint y="-1" as="offset" />
              <Array as="points">
                <mxPoint x="1631" y="1296.11" />
                <mxPoint x="1167.51" y="1296.11" />
              </Array>
              <mxPoint x="1631" y="1278" as="sourcePoint" />
              <mxPoint x="1168" y="1314" as="targetPoint" />
            </mxGeometry>
          </mxCell>
        </UserObject>
        <UserObject label="" tags="STOP" id="42">
          <mxCell style="vsdxID=35;fillColor=none;gradientColor=none;strokeWidth=102;spacingTop=-3;spacingBottom=-3;spacingLeft=-3;spacingRight=-3;points=[];labelBackgroundColor=none;rounded=0;strokeColor=none;html=1;whiteSpace=wrap;" parent="1" vertex="1">
            <mxGeometry x="1568" y="1038" width="127" height="127" as="geometry" />
          </mxCell>
        </UserObject>
        <mxCell id="43" style="vsdxID=36;fillColor=none;gradientColor=none;strokeColor=none;strokeWidth=2;spacingTop=-3;spacingBottom=-3;spacingLeft=-3;spacingRight=-3;points=[[0,0.5,0],[1,0.5,0],[0.5,1,0],[0.5,0,0]];labelBackgroundColor=none;rounded=1;html=1;whiteSpace=wrap;" parent="42" vertex="1">
          <mxGeometry width="127" height="127" as="geometry" />
        </mxCell>
        <mxCell id="44" style="vsdxID=37;fillColor=#c92d39;gradientColor=none;shape=stencil(vVXbcoMgFPwaHnW4jKjPafID/QKmEmVqJYO2Mf36okctEJOHzOgb7FlZlwUOYoe2EheJKG47oz/lVRVdhdgbolQ1lTSqsyPEjogdztrI0ujvpoD5RVgmxSMiC/iGDGyKhfl4V78SMBwzkiZQgC+/9M+g2E91KN1gxug4PQHTLjRITEweEwZkcwuRiUJjQr31LCXLJkoketVGRneiU7rx1GthShlZuehci9IrtVcpLw5M3B+sVeNYsWK5rx6TZ3byLLQzI723G/NyeC8jPFvRXTWRxjn1TfwjM4XdhbIA21vJ0zCTOaQHfjgL/XD/jBG8emR38BIqTzG9GozdmswP2olqezeDmKe+RLVqKLm7Lkl4XYJju2zX9l6Cizorv/yM8TAZJ6sd3rEgmCWpB8HQNAxmRlbfeL6bkWe9xQ7GFgbNTdU1dEC3HrY8C0G7ZMc/);strokeColor=#ffffff;strokeWidth=2;spacingTop=-3;spacingBottom=-3;spacingLeft=-3;spacingRight=-3;points=[[0,0.5,0],[1,0.5,0],[0.5,1,0],[0.5,0,0]];labelBackgroundColor=none;rounded=1;html=1;whiteSpace=wrap;" parent="43" vertex="1">
          <mxGeometry width="127" height="127" as="geometry" />
        </mxCell>
        <mxCell id="45" value="&lt;div style=&quot;font-size: 1px&quot;&gt;&lt;p style=&quot;text-align:center;margin-left:0;margin-right:0;margin-top:0px;margin-bottom:0px;text-indent:0;vertical-align:middle;direction:ltr;&quot;&gt;&lt;font style=&quot;font-size:15.52px;font-family:Arial;color:#ffffff;direction:ltr;letter-spacing:0px;line-height:100%;opacity:1&quot;&gt;&lt;b&gt;S&lt;/b&gt;&lt;/font&gt;&lt;font style=&quot;font-size:14.11px;font-family:Arial;color:#ffffff;direction:ltr;letter-spacing:0px;line-height:100%;opacity:1&quot;&gt;top&lt;br/&gt;&lt;/font&gt;&lt;font style=&quot;font-size:15.52px;font-family:Arial;color:#ffffff;direction:ltr;letter-spacing:0px;line-height:100%;opacity:1&quot;&gt;&lt;b&gt;T&lt;/b&gt;&lt;/font&gt;&lt;font style=&quot;font-size:14.11px;font-family:Arial;color:#ffffff;direction:ltr;letter-spacing:0px;line-height:100%;opacity:1&quot;&gt;ake A Step Back&lt;br/&gt;&lt;/font&gt;&lt;font style=&quot;font-size:15.52px;font-family:Arial;color:#ffffff;direction:ltr;letter-spacing:0px;line-height:100%;opacity:1&quot;&gt;&lt;b&gt;O&lt;/b&gt;&lt;/font&gt;&lt;font style=&quot;font-size:14.11px;font-family:Arial;color:#ffffff;direction:ltr;letter-spacing:0px;line-height:100%;opacity:1&quot;&gt;bserve&lt;br/&gt;&lt;/font&gt;&lt;font style=&quot;font-size:15.52px;font-family:Arial;color:#ffffff;direction:ltr;letter-spacing:0px;line-height:100%;opacity:1&quot;&gt;&lt;b&gt;P&lt;/b&gt;&lt;/font&gt;&lt;font style=&quot;font-size:14.11px;font-family:Arial;color:#ffffff;direction:ltr;letter-spacing:0px;line-height:100%;opacity:1&quot;&gt;roceed Mindfully&lt;/font&gt;&lt;/p&gt;&lt;/div&gt;" style="text;vsdxID=36;fillColor=none;gradientColor=none;strokeColor=none;strokeWidth=2;spacingTop=-3;spacingBottom=-3;spacingLeft=-3;spacingRight=-3;points=[[0,0.5,0],[1,0.5,0],[0.5,1,0],[0.5,0,0]];labelBackgroundColor=none;rounded=1;html=1;whiteSpace=wrap;verticalAlign=middle;align=center;overflow=width;;html=1;" parent="43" vertex="1">
          <mxGeometry x="3.17" y="3.18" width="120.65" height="120.65" as="geometry" />
        </mxCell>
        <UserObject label="" tags="Background" id="46">
          <mxCell style="vsdxID=38;fillColor=none;gradientColor=none;strokeColor=none;strokeWidth=2;spacingTop=-3;spacingBottom=-3;spacingLeft=-3;spacingRight=-3;points=[[0,0.5,0],[1,0.5,0],[0.5,1,0],[0.5,0,0]];labelBackgroundColor=none;rounded=1;html=1;whiteSpace=wrap;" parent="1" vertex="1">
            <mxGeometry x="1565" y="1036" width="131" height="131" as="geometry" />
          </mxCell>
        </UserObject>
        <mxCell id="47" style="vsdxID=39;fillColor=#FFFFFF;gradientColor=none;shape=stencil(vZXdcoMgEIWfxksZfhT0Ok1foE/ANMQwteqgbWKfvhCMYTGxV/ZOz64cPhZ3E7brT7JTCcX9YNoPddaH4ZSwl4RS3ZyU0YN9Stg+Ybtja1Rl2q/m4N87aTMpvirq4L8hLptiad7f9I/yGkaMiNwH/Jef7bdzvExxHxr9GyOo9Ku8+mS7lnOZkjkqfboZb0IxKVMGRTgDK7pv+JSSyovuU9MOctBtA/xraSqVWrf0WMsKhPqzUl0gg/3VuglgnFlkjzB7ziMQZxDIKhQA2RO5IY5gW9vT8ALhR9YPUQqUUYhiFQJQBFsUZxa2pykFKsXiauRrRITHRCQHRAQvru98HzcHis1tuVZ+HRssFjQC0LgT4mDJoGLb8zgzaO82lK11AxEhWQUiuTMhYM351LYHujezwBzh1f6W5TFRlgGioJ+Ni7L9Q4e79bPwivDnRDkqoxrdlYcTIKjY9jR/DB/7cB1zfgDquvZTMozHY9FKfqSy/S8=);strokeColor=#5e5e5e;strokeWidth=2;spacingTop=-3;spacingBottom=-3;spacingLeft=-3;spacingRight=-3;points=[[0,0.5,0],[1,0.5,0],[0.5,1,0],[0.5,0,0]];labelBackgroundColor=none;rounded=1;html=1;whiteSpace=wrap;" parent="46" vertex="1">
          <mxGeometry width="131" height="131" as="geometry" />
        </mxCell>
        <UserObject label="" tags="Background" id="82">
          <mxCell style="vsdxID=40;edgeStyle=none;startArrow=none;endArrow=block;startSize=5;endSize=5;strokeColor=#5E5E5E;spacingTop=-3;spacingBottom=-3;spacingLeft=-3;spacingRight=-3;verticalAlign=middle;html=1;labelBackgroundColor=#ffffff;rounded=1;" parent="1" edge="1">
            <mxGeometry relative="1" as="geometry">
              <Array as="points" />
              <mxPoint x="1631" y="1000" as="sourcePoint" />
              <mxPoint x="1631" y="1035" as="targetPoint" />
            </mxGeometry>
          </mxCell>
        </UserObject>
        <mxCell id="83" value="&lt;div style=&quot;font-size: 1px&quot;&gt;&lt;p style=&quot;text-align:left;margin-left:0;margin-right:0;margin-top:0px;margin-bottom:0px;text-indent:0;vertical-align:middle;direction:ltr;&quot;&gt;&lt;font style=&quot;font-size:14.11px;font-family:Arial;color:#333333;direction:ltr;letter-spacing:0px;line-height:100%;opacity:1&quot;&gt;&lt;b&gt;Yes&lt;/b&gt;&lt;/font&gt;&lt;/p&gt;&lt;/div&gt;" style="text;vsdxID=40;edgeStyle=none;startArrow=none;endArrow=block;startSize=5;endSize=5;strokeColor=none;spacingTop=-3;spacingBottom=-3;spacingLeft=-3;spacingRight=-3;verticalAlign=middle;html=1;labelBackgroundColor=#ffffff;rounded=1;align=left;overflow=width;fillColor=none;gradientColor=none;whiteSpace=wrap;;html=1;" parent="82" vertex="1">
          <mxGeometry width="24.31" height="16.94" relative="1" as="geometry">
            <mxPoint x="-12.155" y="-10.47" as="offset" />
          </mxGeometry>
        </mxCell>
        <UserObject label="" tags="Background" id="84">
          <mxCell style="vsdxID=41;edgeStyle=none;startArrow=none;endArrow=block;startSize=5;endSize=5;strokeColor=#5E5E5E;spacingTop=-3;spacingBottom=-3;spacingLeft=-3;spacingRight=-3;verticalAlign=middle;html=1;labelBackgroundColor=#ffffff;rounded=1;" parent="1" edge="1">
            <mxGeometry relative="1" as="geometry">
              <Array as="points" />
              <mxPoint x="1631" y="1169" as="sourcePoint" />
              <mxPoint x="1631" y="1203" as="targetPoint" />
            </mxGeometry>
          </mxCell>
        </UserObject>
        <mxCell id="85" value="&lt;div style=&quot;font-size: 1px&quot;&gt;&lt;p style=&quot;text-align:left;margin-left:0;margin-right:0;margin-top:0px;margin-bottom:0px;text-indent:0;vertical-align:middle;direction:ltr;&quot;&gt;&lt;font style=&quot;font-size:12.7px;font-family:Arial;color:#333333;direction:ltr;letter-spacing:0px;line-height:100%;opacity:1&quot;&gt;&lt;b&gt;Now What ... ?&lt;/b&gt;&lt;/font&gt;&lt;/p&gt;&lt;/div&gt;" style="text;vsdxID=41;edgeStyle=none;startArrow=none;endArrow=block;startSize=5;endSize=5;strokeColor=none;spacingTop=-3;spacingBottom=-3;spacingLeft=-3;spacingRight=-3;verticalAlign=middle;html=1;labelBackgroundColor=#ffffff;rounded=1;align=left;overflow=width;fillColor=none;gradientColor=none;whiteSpace=wrap;;html=1;" parent="84" vertex="1">
          <mxGeometry width="86.57" height="15.24" relative="1" as="geometry">
            <mxPoint x="-44.285" y="25.38" as="offset" />
          </mxGeometry>
        </mxCell>
        <UserObject label="" tags="Background" id="48">
          <mxCell style="vsdxID=42;fillColor=none;gradientColor=none;strokeColor=none;strokeWidth=2;spacingTop=-3;spacingBottom=-3;spacingLeft=-3;spacingRight=-3;points=[[0,0.5,0],[1,0.5,0],[0.5,1,0],[0.5,0,0]];labelBackgroundColor=none;rounded=1;html=1;whiteSpace=wrap;" parent="1" vertex="1">
            <mxGeometry x="1250" y="1315" width="139" height="133" as="geometry" />
          </mxCell>
        </UserObject>
        <mxCell id="49" style="vsdxID=43;fillColor=#c1e4f7;gradientColor=none;shape=stencil(vZTBcoMgFEW/hqUM8JpB1mn6A/0CphJlSsVBmph+fTHPOqJJds0O3r1wOeCTwL5vdGeIYH0M/tOcbRUbAq9ECNs2JtiYRgQOBPZHH0wd/Hdb4bzTySnYtWIqXMNHt2A6fLzbH4M1RoHLHQq48sufxsRh0lG64EzQEr1v6E1bjSHDnyoU2sPsh6kyWyRkO077D4UebF8EH3W0vs00p0NtihRVHJ2uM6k/G9Mtynx5OGfbBYiSVMgb0TdJgALkJEBfyoyEsztX8wSWdXZi4/LRuyi1puEio9nezpzx/zibjyJlUybuA3FayhyIU7XLgLYX9LTXedwyaXDtTexa6xy29lJf93Iq4X8ADr8=);strokeColor=#5e5e5e;strokeWidth=2;spacingTop=-3;spacingBottom=-3;spacingLeft=-3;spacingRight=-3;points=[[0,0.5,0],[1,0.5,0],[0.5,1,0],[0.5,0,0]];labelBackgroundColor=none;rounded=1;html=1;whiteSpace=wrap;" parent="48" vertex="1">
          <mxGeometry width="139" height="133" as="geometry" />
        </mxCell>
        <mxCell id="50" value="&lt;div style=&quot;font-size: 1px&quot;&gt;&lt;p style=&quot;text-align:left;margin-left:0;margin-right:0;margin-top:0px;margin-bottom:0px;text-indent:0;vertical-align:top;direction:ltr;&quot;&gt;&lt;font style=&quot;font-size:14.11px;font-family:Arial;color:#333333;direction:ltr;letter-spacing:0px;line-height:100%;opacity:1&quot;&gt;&lt;b&gt;Skill 2&lt;br/&gt;&lt;br/&gt;&lt;/b&gt;&lt;/font&gt;&lt;font style=&quot;font-size:14.11px;font-family:Arial;color:#333333;direction:ltr;letter-spacing:0px;line-height:100%;opacity:1&quot;&gt;&lt;i&gt;Lucid.app&lt;/i&gt;&lt;/font&gt;&lt;font style=&quot;font-size:14.11px;font-family:Arial;color:#333333;direction:ltr;letter-spacing:0px;line-height:100%;opacity:1&quot;&gt; requires a free account to use&lt;/font&gt;&lt;font style=&quot;font-size:14.11px;font-family:Arial;color:#333333;direction:ltr;letter-spacing:0px;line-height:100%;opacity:1&quot;&gt;&lt;b&gt; &lt;br/&gt;&lt;br/&gt;Duplicate&lt;/b&gt;&lt;/font&gt;&lt;/p&gt;&lt;/div&gt;" style="text;vsdxID=42;fillColor=none;gradientColor=none;strokeColor=none;strokeWidth=2;spacingTop=-3;spacingBottom=-3;spacingLeft=-3;spacingRight=-3;points=[[0,0.5,0],[1,0.5,0],[0.5,1,0],[0.5,0,0]];labelBackgroundColor=none;rounded=1;html=1;whiteSpace=wrap;verticalAlign=top;align=left;overflow=width;;html=1;" parent="48" vertex="1">
          <mxGeometry x="7.62" y="6.84" width="124.46" height="118.75" as="geometry" />
        </mxCell>
        <UserObject label="" tags="Background" id="51">
          <mxCell style="vsdxID=44;fillColor=none;gradientColor=none;strokeColor=none;strokeWidth=2;spacingTop=-3;spacingBottom=-3;spacingLeft=-3;spacingRight=-3;points=[[0,0.5,0],[1,0.5,0],[0.5,1,0],[0.5,0,0]];labelBackgroundColor=none;rounded=1;html=1;whiteSpace=wrap;" parent="1" vertex="1">
            <mxGeometry x="1403" y="1315" width="139" height="133" as="geometry" />
          </mxCell>
        </UserObject>
        <mxCell id="52" style="vsdxID=45;fillColor=#c1e4f7;gradientColor=none;shape=stencil(vZTBcoMgFEW/hqUM8JpB1mn6A/0CphJlSsVBmph+fTHPOqJJds0O3r1wOeCTwL5vdGeIYH0M/tOcbRUbAq9ECNs2JtiYRgQOBPZHH0wd/Hdb4bzTySnYtWIqXMNHt2A6fLzbH4M1RoHLHQq48sufxsRh0lG64EzQEr1v6E1bjSHDnyoU2sPsh6kyWyRkO077D4UebF8EH3W0vs00p0NtihRVHJ2uM6k/G9Mtynx5OGfbBYiSVMgb0TdJgALkJEBfyoyEsztX8wSWdXZi4/LRuyi1puEio9nezpzx/zibjyJlUybuA3FayhyIU7XLgLYX9LTXedwyaXDtTexa6xy29lJf93Iq4X8ADr8=);strokeColor=#5e5e5e;strokeWidth=2;spacingTop=-3;spacingBottom=-3;spacingLeft=-3;spacingRight=-3;points=[[0,0.5,0],[1,0.5,0],[0.5,1,0],[0.5,0,0]];labelBackgroundColor=none;rounded=1;html=1;whiteSpace=wrap;" parent="51" vertex="1">
          <mxGeometry width="139" height="133" as="geometry" />
        </mxCell>
        <mxCell id="53" value="&lt;div style=&quot;font-size: 1px&quot;&gt;&lt;p style=&quot;text-align:left;margin-left:0;margin-right:0;margin-top:0px;margin-bottom:0px;text-indent:0;vertical-align:top;direction:ltr;&quot;&gt;&lt;font style=&quot;font-size:14.11px;font-family:Arial;color:#333333;direction:ltr;letter-spacing:0px;line-height:100%;opacity:1&quot;&gt;&lt;b&gt;Skill 3&lt;br/&gt;&lt;br/&gt;&lt;/b&gt;&lt;/font&gt;&lt;font style=&quot;font-size:14.11px;font-family:Arial;color:#333333;direction:ltr;letter-spacing:0px;line-height:100%;opacity:1&quot;&gt;Duplicate this document to edit it.&lt;br/&gt;&lt;br/&gt;Go to &lt;/font&gt;&lt;font style=&quot;font-size:14.11px;font-family:Arial;color:#333333;direction:ltr;letter-spacing:0px;line-height:100%;opacity:1&quot;&gt;File&lt;/font&gt;&lt;font style=&quot;font-size:14.11px;font-family:Arial;color:#333333;direction:ltr;letter-spacing:0px;line-height:100%;opacity:1&quot;&gt; then &lt;/font&gt;&lt;font style=&quot;font-size:14.11px;font-family:Arial;color:#333333;direction:ltr;letter-spacing:0px;line-height:100%;opacity:1&quot;&gt;Duplicate&lt;/font&gt;&lt;font style=&quot;font-size:14.11px;font-family:Arial;color:#333333;direction:ltr;letter-spacing:0px;line-height:100%;opacity:1&quot;&gt;&lt;b&gt;&lt;br/&gt;&lt;br/&gt;&lt;br/&gt;&lt;br/&gt;&lt;/b&gt;&lt;/font&gt;&lt;/p&gt;&lt;/div&gt;" style="text;vsdxID=44;fillColor=none;gradientColor=none;strokeColor=none;strokeWidth=2;spacingTop=-3;spacingBottom=-3;spacingLeft=-3;spacingRight=-3;points=[[0,0.5,0],[1,0.5,0],[0.5,1,0],[0.5,0,0]];labelBackgroundColor=none;rounded=1;html=1;whiteSpace=wrap;verticalAlign=top;align=left;overflow=width;;html=1;" parent="51" vertex="1">
          <mxGeometry x="7.62" y="6.84" width="124.46" height="118.75" as="geometry" />
        </mxCell>
        <UserObject label="" tags="Background" id="54">
          <mxCell style="vsdxID=46;fillColor=none;gradientColor=none;strokeColor=none;strokeWidth=2;spacingTop=-3;spacingBottom=-3;spacingLeft=-3;spacingRight=-3;points=[[0,0.5,0],[1,0.5,0],[0.5,1,0],[0.5,0,0]];labelBackgroundColor=none;rounded=1;html=1;whiteSpace=wrap;" parent="1" vertex="1">
            <mxGeometry x="1555" y="1315" width="139" height="133" as="geometry" />
          </mxCell>
        </UserObject>
        <mxCell id="55" style="vsdxID=47;fillColor=#c1e4f7;gradientColor=none;shape=stencil(vZTBcoMgFEW/hqUM8JpB1mn6A/0CphJlSsVBmph+fTHPOqJJds0O3r1wOeCTwL5vdGeIYH0M/tOcbRUbAq9ECNs2JtiYRgQOBPZHH0wd/Hdb4bzTySnYtWIqXMNHt2A6fLzbH4M1RoHLHQq48sufxsRh0lG64EzQEr1v6E1bjSHDnyoU2sPsh6kyWyRkO077D4UebF8EH3W0vs00p0NtihRVHJ2uM6k/G9Mtynx5OGfbBYiSVMgb0TdJgALkJEBfyoyEsztX8wSWdXZi4/LRuyi1puEio9nezpzx/zibjyJlUybuA3FayhyIU7XLgLYX9LTXedwyaXDtTexa6xy29lJf93Iq4X8ADr8=);strokeColor=#5e5e5e;strokeWidth=2;spacingTop=-3;spacingBottom=-3;spacingLeft=-3;spacingRight=-3;points=[[0,0.5,0],[1,0.5,0],[0.5,1,0],[0.5,0,0]];labelBackgroundColor=none;rounded=1;html=1;whiteSpace=wrap;" parent="54" vertex="1">
          <mxGeometry width="139" height="133" as="geometry" />
        </mxCell>
        <mxCell id="56" value="&lt;div style=&quot;font-size: 1px&quot;&gt;&lt;p style=&quot;text-align:left;margin-left:0;margin-right:0;margin-top:0px;margin-bottom:0px;text-indent:0;vertical-align:top;direction:ltr;&quot;&gt;&lt;font style=&quot;font-size:14.11px;font-family:Arial;color:#333333;direction:ltr;letter-spacing:0px;line-height:100%;opacity:1&quot;&gt;&lt;b&gt;Skill 4&lt;br/&gt;&lt;br/&gt;&lt;/b&gt;&lt;/font&gt;&lt;font style=&quot;font-size:14.11px;font-family:Arial;color:#333333;direction:ltr;letter-spacing:0px;line-height:100%;opacity:1&quot;&gt;to change lines use shift-enter&lt;br/&gt;&lt;/font&gt;&lt;font style=&quot;font-size:14.11px;font-family:Arial;color:#333333;direction:ltr;letter-spacing:0px;line-height:100%;opacity:1&quot;&gt;&lt;b&gt;&lt;br/&gt;&lt;/b&gt;&lt;/font&gt;&lt;/p&gt;&lt;/div&gt;" style="text;vsdxID=46;fillColor=none;gradientColor=none;strokeColor=none;strokeWidth=2;spacingTop=-3;spacingBottom=-3;spacingLeft=-3;spacingRight=-3;points=[[0,0.5,0],[1,0.5,0],[0.5,1,0],[0.5,0,0]];labelBackgroundColor=none;rounded=1;html=1;whiteSpace=wrap;verticalAlign=top;align=left;overflow=width;;html=1;" parent="54" vertex="1">
          <mxGeometry x="7.62" y="6.84" width="124.46" height="118.75" as="geometry" />
        </mxCell>
        <UserObject label="" tags="Background" id="57">
          <mxCell style="vsdxID=48;fillColor=none;gradientColor=none;strokeColor=none;strokeWidth=2;spacingTop=-3;spacingBottom=-3;spacingLeft=-3;spacingRight=-3;points=[[0,0.5,0],[1,0.5,0],[0.5,1,0],[0.5,0,0]];labelBackgroundColor=none;rounded=1;html=1;whiteSpace=wrap;" parent="1" vertex="1">
            <mxGeometry x="1707" y="1315" width="139" height="133" as="geometry" />
          </mxCell>
        </UserObject>
        <mxCell id="58" style="vsdxID=49;fillColor=#c1e4f7;gradientColor=none;shape=stencil(vZTBcoMgFEW/hqUM8JpB1mn6A/0CphJlSsVBmph+fTHPOqJJds0O3r1wOeCTwL5vdGeIYH0M/tOcbRUbAq9ECNs2JtiYRgQOBPZHH0wd/Hdb4bzTySnYtWIqXMNHt2A6fLzbH4M1RoHLHQq48sufxsRh0lG64EzQEr1v6E1bjSHDnyoU2sPsh6kyWyRkO077D4UebF8EH3W0vs00p0NtihRVHJ2uM6k/G9Mtynx5OGfbBYiSVMgb0TdJgALkJEBfyoyEsztX8wSWdXZi4/LRuyi1puEio9nezpzx/zibjyJlUybuA3FayhyIU7XLgLYX9LTXedwyaXDtTexa6xy29lJf93Iq4X8ADr8=);strokeColor=#5e5e5e;strokeWidth=2;spacingTop=-3;spacingBottom=-3;spacingLeft=-3;spacingRight=-3;points=[[0,0.5,0],[1,0.5,0],[0.5,1,0],[0.5,0,0]];labelBackgroundColor=none;rounded=1;html=1;whiteSpace=wrap;" parent="57" vertex="1">
          <mxGeometry width="139" height="133" as="geometry" />
        </mxCell>
        <mxCell id="59" value="&lt;div style=&quot;font-size: 1px&quot;&gt;&lt;p style=&quot;text-align:left;margin-left:0;margin-right:0;margin-top:0px;margin-bottom:0px;text-indent:0;vertical-align:top;direction:ltr;&quot;&gt;&lt;font style=&quot;font-size:14.11px;font-family:Arial;color:#333333;direction:ltr;letter-spacing:0px;line-height:100%;opacity:1&quot;&gt;&lt;b&gt;Skill 5&lt;br/&gt;&lt;br/&gt;&lt;/b&gt;&lt;/font&gt;&lt;font style=&quot;font-size:14.11px;font-family:Arial;color:#333333;direction:ltr;letter-spacing:0px;line-height:100%;opacity:1&quot;&gt;DBT skills are usually taught in a group session lead by a licensed therapist.&lt;/font&gt;&lt;font style=&quot;font-size:14.11px;font-family:Arial;color:#333333;direction:ltr;letter-spacing:0px;line-height:100%;opacity:1&quot;&gt;&lt;b&gt;&lt;br/&gt;&lt;br/&gt;&lt;/b&gt;&lt;/font&gt;&lt;/p&gt;&lt;/div&gt;" style="text;vsdxID=48;fillColor=none;gradientColor=none;strokeColor=none;strokeWidth=2;spacingTop=-3;spacingBottom=-3;spacingLeft=-3;spacingRight=-3;points=[[0,0.5,0],[1,0.5,0],[0.5,1,0],[0.5,0,0]];labelBackgroundColor=none;rounded=1;html=1;whiteSpace=wrap;verticalAlign=top;align=left;overflow=width;;html=1;" parent="57" vertex="1">
          <mxGeometry x="7.62" y="6.84" width="124.46" height="118.75" as="geometry" />
        </mxCell>
        <UserObject label="" tags="Background" id="60">
          <mxCell style="vsdxID=50;fillColor=none;gradientColor=none;strokeColor=none;strokeWidth=2;spacingTop=-3;spacingBottom=-3;spacingLeft=-3;spacingRight=-3;points=[[0,0.5,0],[1,0.5,0],[0.5,1,0],[0.5,0,0],[1.07,0.73,0],[-1.07,1,0]];labelBackgroundColor=none;rounded=1;html=1;whiteSpace=wrap;" parent="1" vertex="1">
            <mxGeometry x="1860" y="1315" width="139" height="133" as="geometry" />
          </mxCell>
        </UserObject>
        <mxCell id="61" style="vsdxID=51;fillColor=#c1e4f7;gradientColor=none;shape=stencil(vZTBcoMgFEW/hqUM8JpB1mn6A/0CphJlSsVBmph+fTHPOqJJds0O3r1wOeCTwL5vdGeIYH0M/tOcbRUbAq9ECNs2JtiYRgQOBPZHH0wd/Hdb4bzTySnYtWIqXMNHt2A6fLzbH4M1RoHLHQq48sufxsRh0lG64EzQEr1v6E1bjSHDnyoU2sPsh6kyWyRkO077D4UebF8EH3W0vs00p0NtihRVHJ2uM6k/G9Mtynx5OGfbBYiSVMgb0TdJgALkJEBfyoyEsztX8wSWdXZi4/LRuyi1puEio9nezpzx/zibjyJlUybuA3FayhyIU7XLgLYX9LTXedwyaXDtTexa6xy29lJf93Iq4X8ADr8=);strokeColor=#5e5e5e;strokeWidth=2;spacingTop=-3;spacingBottom=-3;spacingLeft=-3;spacingRight=-3;points=[[0,0.5,0],[1,0.5,0],[0.5,1,0],[0.5,0,0]];labelBackgroundColor=none;rounded=1;html=1;whiteSpace=wrap;" parent="60" vertex="1">
          <mxGeometry width="139" height="133" as="geometry" />
        </mxCell>
        <mxCell id="62" value="&lt;div style=&quot;font-size: 1px&quot;&gt;&lt;p style=&quot;text-align:left;margin-left:0;margin-right:0;margin-top:0px;margin-bottom:0px;text-indent:0;vertical-align:top;direction:ltr;&quot;&gt;&lt;font style=&quot;font-size:14.11px;font-family:Arial;color:#333333;direction:ltr;letter-spacing:0px;line-height:100%;opacity:1&quot;&gt;&lt;b&gt;Skill 6&lt;br/&gt;&lt;br/&gt;&lt;/b&gt;&lt;/font&gt;&lt;font style=&quot;font-size:14.11px;font-family:Arial;color:#333333;direction:ltr;letter-spacing:0px;line-height:100%;opacity:1&quot;&gt;If you don&amp;prime;t have access to a therapist, there are workbooks you can follow.&lt;/font&gt;&lt;font style=&quot;font-size:14.11px;font-family:Arial;color:#333333;direction:ltr;letter-spacing:0px;line-height:100%;opacity:1&quot;&gt;&lt;b&gt;&lt;br/&gt;&lt;br/&gt;&lt;/b&gt;&lt;/font&gt;&lt;/p&gt;&lt;/div&gt;" style="text;vsdxID=50;fillColor=none;gradientColor=none;strokeColor=none;strokeWidth=2;spacingTop=-3;spacingBottom=-3;spacingLeft=-3;spacingRight=-3;points=[[0,0.5,0],[1,0.5,0],[0.5,1,0],[0.5,0,0],[1.07,0.73,0],[-1.07,1,0]];labelBackgroundColor=none;rounded=1;html=1;whiteSpace=wrap;verticalAlign=top;align=left;overflow=width;;html=1;" parent="60" vertex="1">
          <mxGeometry x="7.62" y="6.84" width="124.46" height="118.75" as="geometry" />
        </mxCell>
        <UserObject label="" tags="Background" id="63">
          <mxCell style="vsdxID=52;fillColor=none;gradientColor=none;strokeColor=none;strokeWidth=2;spacingTop=-3;spacingBottom=-3;spacingLeft=-3;spacingRight=-3;points=[[0,0.5,0],[1,0.5,0],[0.5,1,0],[0.5,0,0]];labelBackgroundColor=none;rounded=1;html=1;whiteSpace=wrap;" parent="1" vertex="1">
            <mxGeometry x="2012" y="1315" width="139" height="133" as="geometry" />
          </mxCell>
        </UserObject>
        <mxCell id="64" style="vsdxID=53;fillColor=#c1e4f7;gradientColor=none;shape=stencil(vZTBcoMgFEW/hqUM8JpB1mn6A/0CphJlSsVBmph+fTHPOqJJds0O3r1wOeCTwL5vdGeIYH0M/tOcbRUbAq9ECNs2JtiYRgQOBPZHH0wd/Hdb4bzTySnYtWIqXMNHt2A6fLzbH4M1RoHLHQq48sufxsRh0lG64EzQEr1v6E1bjSHDnyoU2sPsh6kyWyRkO077D4UebF8EH3W0vs00p0NtihRVHJ2uM6k/G9Mtynx5OGfbBYiSVMgb0TdJgALkJEBfyoyEsztX8wSWdXZi4/LRuyi1puEio9nezpzx/zibjyJlUybuA3FayhyIU7XLgLYX9LTXedwyaXDtTexa6xy29lJf93Iq4X8ADr8=);strokeColor=#5e5e5e;strokeWidth=2;spacingTop=-3;spacingBottom=-3;spacingLeft=-3;spacingRight=-3;points=[[0,0.5,0],[1,0.5,0],[0.5,1,0],[0.5,0,0]];labelBackgroundColor=none;rounded=1;html=1;whiteSpace=wrap;" parent="63" vertex="1">
          <mxGeometry width="139" height="133" as="geometry" />
        </mxCell>
        <mxCell id="65" value="&lt;div style=&quot;font-size: 1px&quot;&gt;&lt;p style=&quot;text-align:left;margin-left:0;margin-right:0;margin-top:0px;margin-bottom:0px;text-indent:0;vertical-align:top;direction:ltr;&quot;&gt;&lt;font style=&quot;font-size:14.11px;font-family:Arial;color:#333333;direction:ltr;letter-spacing:0px;line-height:100%;opacity:1&quot;&gt;&lt;b&gt;Skill 7&lt;br/&gt;&lt;br/&gt;&lt;/b&gt;&lt;/font&gt;&lt;font style=&quot;font-size:14.11px;font-family:Arial;color:#333333;direction:ltr;letter-spacing:0px;line-height:100%;opacity:1&quot;&gt;There is a lot of material on Youtube from licensed practicioners.&lt;br/&gt;&lt;/font&gt;&lt;/p&gt;&lt;/div&gt;" style="text;vsdxID=52;fillColor=none;gradientColor=none;strokeColor=none;strokeWidth=2;spacingTop=-3;spacingBottom=-3;spacingLeft=-3;spacingRight=-3;points=[[0,0.5,0],[1,0.5,0],[0.5,1,0],[0.5,0,0]];labelBackgroundColor=none;rounded=1;html=1;whiteSpace=wrap;verticalAlign=top;align=left;overflow=width;;html=1;" parent="63" vertex="1">
          <mxGeometry x="7.62" y="6.84" width="124.46" height="118.75" as="geometry" />
        </mxCell>
        <UserObject label="" tags="Background" id="86">
          <mxCell style="vsdxID=54;edgeStyle=none;startArrow=none;endArrow=block;startSize=5;endSize=5;strokeColor=#5E5E5E;spacingTop=-3;spacingBottom=-3;spacingLeft=-3;spacingRight=-3;verticalAlign=middle;html=1;labelBackgroundColor=none;rounded=1;" parent="1" edge="1">
            <mxGeometry relative="1" as="geometry">
              <mxPoint y="-1" as="offset" />
              <Array as="points">
                <mxPoint x="1631" y="1296.11" />
                <mxPoint x="1319.91" y="1296.11" />
              </Array>
              <mxPoint x="1631" y="1278" as="sourcePoint" />
              <mxPoint x="1320" y="1314" as="targetPoint" />
            </mxGeometry>
          </mxCell>
        </UserObject>
        <UserObject label="" tags="Background" id="87">
          <mxCell style="vsdxID=55;edgeStyle=none;startArrow=none;endArrow=block;startSize=5;endSize=5;strokeColor=#5E5E5E;spacingTop=-3;spacingBottom=-3;spacingLeft=-3;spacingRight=-3;verticalAlign=middle;html=1;labelBackgroundColor=none;rounded=1;" parent="1" edge="1">
            <mxGeometry relative="1" as="geometry">
              <mxPoint x="-1" y="-1" as="offset" />
              <Array as="points">
                <mxPoint x="1631" y="1296.11" />
                <mxPoint x="1472.31" y="1296.11" />
              </Array>
              <mxPoint x="1631" y="1278" as="sourcePoint" />
              <mxPoint x="1473" y="1314" as="targetPoint" />
            </mxGeometry>
          </mxCell>
        </UserObject>
        <UserObject label="" tags="Background" id="88">
          <mxCell style="vsdxID=56;edgeStyle=none;startArrow=none;endArrow=block;startSize=5;endSize=5;strokeColor=#5E5E5E;spacingTop=-3;spacingBottom=-3;spacingLeft=-3;spacingRight=-3;verticalAlign=middle;html=1;labelBackgroundColor=none;rounded=1;" parent="1" edge="1">
            <mxGeometry relative="1" as="geometry">
              <mxPoint x="-1" y="-1" as="offset" />
              <Array as="points">
                <mxPoint x="1631" y="1296.11" />
                <mxPoint x="1624.65" y="1296.11" />
              </Array>
              <mxPoint x="1631" y="1278" as="sourcePoint" />
              <mxPoint x="1625" y="1314" as="targetPoint" />
            </mxGeometry>
          </mxCell>
        </UserObject>
        <UserObject label="" tags="Background" id="89">
          <mxCell style="vsdxID=57;edgeStyle=none;startArrow=none;endArrow=block;startSize=5;endSize=5;strokeColor=#5E5E5E;spacingTop=-3;spacingBottom=-3;spacingLeft=-3;spacingRight=-3;verticalAlign=middle;html=1;labelBackgroundColor=none;rounded=1;" parent="1" edge="1">
            <mxGeometry relative="1" as="geometry">
              <mxPoint y="-1" as="offset" />
              <Array as="points">
                <mxPoint x="1631" y="1296.11" />
                <mxPoint x="1777.11" y="1296.11" />
              </Array>
              <mxPoint x="1631" y="1278" as="sourcePoint" />
              <mxPoint x="1777" y="1314" as="targetPoint" />
            </mxGeometry>
          </mxCell>
        </UserObject>
        <UserObject label="" tags="Background" id="90">
          <mxCell style="vsdxID=58;edgeStyle=none;startArrow=none;endArrow=block;startSize=5;endSize=5;strokeColor=#5E5E5E;spacingTop=-3;spacingBottom=-3;spacingLeft=-3;spacingRight=-3;verticalAlign=middle;html=1;labelBackgroundColor=none;rounded=1;" parent="1" edge="1">
            <mxGeometry relative="1" as="geometry">
              <mxPoint y="-1" as="offset" />
              <Array as="points">
                <mxPoint x="1631" y="1296.11" />
                <mxPoint x="1929.51" y="1296.11" />
              </Array>
              <mxPoint x="1631" y="1278" as="sourcePoint" />
              <mxPoint x="1930" y="1314" as="targetPoint" />
            </mxGeometry>
          </mxCell>
        </UserObject>
        <UserObject label="" tags="Background" id="91">
          <mxCell style="vsdxID=59;edgeStyle=none;startArrow=none;endArrow=block;startSize=5;endSize=5;strokeColor=#5E5E5E;spacingTop=-3;spacingBottom=-3;spacingLeft=-3;spacingRight=-3;verticalAlign=middle;html=1;labelBackgroundColor=none;rounded=1;" parent="1" edge="1">
            <mxGeometry relative="1" as="geometry">
              <mxPoint x="-1" y="-1" as="offset" />
              <Array as="points">
                <mxPoint x="1631" y="1296.11" />
                <mxPoint x="2081.91" y="1296.11" />
              </Array>
              <mxPoint x="1631" y="1278" as="sourcePoint" />
              <mxPoint x="2082" y="1314" as="targetPoint" />
            </mxGeometry>
          </mxCell>
        </UserObject>
        <UserObject label="" tags="Background" id="92">
          <mxCell style="vsdxID=60;edgeStyle=none;startArrow=none;endArrow=block;startSize=5;endSize=5;strokeColor=#5E5E5E;spacingTop=-3;spacingBottom=-3;spacingLeft=-3;spacingRight=-3;verticalAlign=middle;html=1;labelBackgroundColor=none;rounded=1;" parent="1" edge="1">
            <mxGeometry relative="1" as="geometry">
              <mxPoint as="offset" />
              <Array as="points">
                <mxPoint x="1168" y="1474.44" />
                <mxPoint x="1631.49" y="1474.44" />
              </Array>
              <mxPoint x="1168" y="1450" as="sourcePoint" />
              <mxPoint x="1631" y="1499" as="targetPoint" />
            </mxGeometry>
          </mxCell>
        </UserObject>
        <UserObject label="" tags="Background" id="93">
          <mxCell style="vsdxID=61;edgeStyle=none;startArrow=none;endArrow=block;startSize=5;endSize=5;strokeColor=#5E5E5E;spacingTop=-3;spacingBottom=-3;spacingLeft=-3;spacingRight=-3;verticalAlign=middle;html=1;labelBackgroundColor=none;rounded=1;" parent="1" edge="1">
            <mxGeometry relative="1" as="geometry">
              <mxPoint as="offset" />
              <Array as="points">
                <mxPoint x="1320" y="1474.44" />
                <mxPoint x="1631.09" y="1474.44" />
              </Array>
              <mxPoint x="1320" y="1450" as="sourcePoint" />
              <mxPoint x="1631" y="1499" as="targetPoint" />
            </mxGeometry>
          </mxCell>
        </UserObject>
        <UserObject label="" tags="Background" id="94">
          <mxCell style="vsdxID=62;edgeStyle=none;startArrow=none;endArrow=block;startSize=5;endSize=5;strokeColor=#5E5E5E;spacingTop=-3;spacingBottom=-3;spacingLeft=-3;spacingRight=-3;verticalAlign=middle;html=1;labelBackgroundColor=none;rounded=1;" parent="1" edge="1">
            <mxGeometry relative="1" as="geometry">
              <mxPoint x="-1" as="offset" />
              <Array as="points">
                <mxPoint x="1473" y="1474.44" />
                <mxPoint x="1631.69" y="1474.44" />
              </Array>
              <mxPoint x="1473" y="1450" as="sourcePoint" />
              <mxPoint x="1631" y="1499" as="targetPoint" />
            </mxGeometry>
          </mxCell>
        </UserObject>
        <UserObject label="" tags="Background" id="95">
          <mxCell style="vsdxID=63;edgeStyle=none;startArrow=none;endArrow=block;startSize=5;endSize=5;strokeColor=#5E5E5E;spacingTop=-3;spacingBottom=-3;spacingLeft=-3;spacingRight=-3;verticalAlign=middle;html=1;labelBackgroundColor=none;rounded=1;" parent="1" edge="1">
            <mxGeometry relative="1" as="geometry">
              <mxPoint x="-1" as="offset" />
              <Array as="points">
                <mxPoint x="1625" y="1474.44" />
                <mxPoint x="1631.35" y="1474.44" />
              </Array>
              <mxPoint x="1625" y="1450" as="sourcePoint" />
              <mxPoint x="1631" y="1499" as="targetPoint" />
            </mxGeometry>
          </mxCell>
        </UserObject>
        <UserObject label="" tags="Background" id="96">
          <mxCell style="vsdxID=64;edgeStyle=none;startArrow=none;endArrow=block;startSize=5;endSize=5;strokeColor=#5E5E5E;spacingTop=-3;spacingBottom=-3;spacingLeft=-3;spacingRight=-3;verticalAlign=middle;html=1;labelBackgroundColor=none;rounded=1;" parent="1" edge="1">
            <mxGeometry relative="1" as="geometry">
              <mxPoint as="offset" />
              <Array as="points">
                <mxPoint x="1777" y="1474.44" />
                <mxPoint x="1630.89" y="1474.44" />
              </Array>
              <mxPoint x="1777" y="1450" as="sourcePoint" />
              <mxPoint x="1631" y="1499" as="targetPoint" />
            </mxGeometry>
          </mxCell>
        </UserObject>
        <UserObject label="" tags="Background" id="97">
          <mxCell style="vsdxID=65;edgeStyle=none;startArrow=none;endArrow=block;startSize=5;endSize=5;strokeColor=#5E5E5E;spacingTop=-3;spacingBottom=-3;spacingLeft=-3;spacingRight=-3;verticalAlign=middle;html=1;labelBackgroundColor=none;rounded=1;" parent="1" edge="1">
            <mxGeometry relative="1" as="geometry">
              <mxPoint as="offset" />
              <Array as="points">
                <mxPoint x="1930" y="1475.44" />
                <mxPoint x="1631.49" y="1475.44" />
              </Array>
              <mxPoint x="1930" y="1451" as="sourcePoint" />
              <mxPoint x="1631" y="1499" as="targetPoint" />
            </mxGeometry>
          </mxCell>
        </UserObject>
        <UserObject label="" tags="Background" id="98">
          <mxCell style="vsdxID=66;edgeStyle=none;startArrow=none;endArrow=block;startSize=5;endSize=5;strokeColor=#5E5E5E;spacingTop=-3;spacingBottom=-3;spacingLeft=-3;spacingRight=-3;verticalAlign=middle;html=1;labelBackgroundColor=none;rounded=1;" parent="1" edge="1">
            <mxGeometry relative="1" as="geometry">
              <mxPoint as="offset" />
              <Array as="points">
                <mxPoint x="2082" y="1474.44" />
                <mxPoint x="1631.09" y="1474.44" />
              </Array>
              <mxPoint x="2082" y="1450" as="sourcePoint" />
              <mxPoint x="1631" y="1499" as="targetPoint" />
            </mxGeometry>
          </mxCell>
        </UserObject>
        <UserObject label="" tags="Background" id="66">
          <mxCell style="vsdxID=67;fillColor=none;gradientColor=none;fillOpacity=0;strokeOpacity=0;strokeWidth=2;spacingTop=-3;spacingBottom=-3;spacingLeft=-3;spacingRight=-3;points=[[0,0.5,0],[1,0.5,0],[0.5,1,0],[0.5,0,0]];labelBackgroundColor=none;rounded=1;strokeColor=none;html=1;whiteSpace=wrap;" parent="1" vertex="1">
            <mxGeometry x="1707" y="829" width="215" height="60" as="geometry" />
          </mxCell>
        </UserObject>
        <mxCell id="67" style="vsdxID=68;fillColor=#ffffff;gradientColor=none;fillOpacity=0;strokeOpacity=0;shape=stencil(vZRNcoQgEIVPw1KKH4VhPZlcICegIqNUjFhIMianD9rWlDAZl+6g34Pn19oifh5bPRjEyBi8+zA3W4cW8RfEmO1b422IK8QviJ+vzpvGu6++hv2go5ORpWJqOENnNyPav7/ZXwM1gjmVFQhw8tN9z4nTqoP0AzuBmVoKr+CNV80hq5fi8gR2v/orzCRU7hYpkhvX+6dCT3YsvAs6WNcnWqd9Y4oYVVw73STSeDNm2JTp9uE6229A1Amz8p/oJyQZiMAlS0HIk84cgJJnK46F3IORMqfhKc1jc+4ZB+Dk34RSWO3ysOztlLgSCc9DfyQ9imZ/YOJimUyYWdt1MNhbPZ/kWIK/AL/8AQ==);strokeWidth=2;spacingTop=-3;spacingBottom=-3;spacingLeft=-3;spacingRight=-3;points=[[0,0.5,0],[1,0.5,0],[0.5,1,0],[0.5,0,0]];labelBackgroundColor=none;rounded=1;html=1;whiteSpace=wrap;" parent="66" vertex="1">
          <mxGeometry width="215" height="60" as="geometry" />
        </mxCell>
        <mxCell id="68" value="&lt;div style=&quot;font-size: 1px&quot;&gt;&lt;p style=&quot;text-align:center;margin-left:0;margin-right:0;margin-top:0px;margin-bottom:0px;text-indent:0;vertical-align:middle;direction:ltr;&quot;&gt;&lt;font style=&quot;font-size:38.1px;font-family:Arial;color:#333333;direction:ltr;letter-spacing:0px;line-height:100%;opacity:1&quot;&gt;&lt;b&gt;Template&lt;/b&gt;&lt;/font&gt;&lt;/p&gt;&lt;/div&gt;" style="text;vsdxID=67;fillColor=none;gradientColor=none;fillOpacity=0;strokeOpacity=0;strokeWidth=2;spacingTop=-3;spacingBottom=-3;spacingLeft=-3;spacingRight=-3;points=[[0,0.5,0],[1,0.5,0],[0.5,1,0],[0.5,0,0]];labelBackgroundColor=none;rounded=1;strokeColor=none;html=1;whiteSpace=wrap;verticalAlign=middle;align=center;overflow=width;;html=1;" parent="66" vertex="1">
          <mxGeometry x="3.17" y="2.65" width="209.55" height="54.61" as="geometry" />
        </mxCell>
        <UserObject label="" tags="Background" id="69">
          <mxCell style="vsdxID=69;fillColor=none;gradientColor=none;fillOpacity=0;strokeColor=none;strokeWidth=0;spacingTop=-3;spacingBottom=-3;spacingLeft=-3;spacingRight=-3;points=[[0,0.5,0],[1,0.5,0],[0.5,1,0],[0.5,0,0]];labelBackgroundColor=none;rounded=0;html=1;whiteSpace=wrap;" parent="1" vertex="1">
            <mxGeometry x="1085" y="1648" width="367" height="29" as="geometry" />
          </mxCell>
        </UserObject>
        <mxCell id="70" style="vsdxID=70;fillColor=#ffffff;gradientColor=none;fillOpacity=0;shape=stencil(pZFNDsIgEIVPM1syQIxhXesFPAERFCJCQ6l/p5d2XKCJG93NvPe9MHmA7EanBwsCx5LTyV69KQ7kBoTw0dnsS51A9iC7Q8r2mNMUDe2DrqTARbGGMnymBeq83/mHJQ2Z5OsVGZQ8p8v84u3lk3Vvty2BwccG5IgM+R+0Ukx9D+DP7NsVdViaoc58CFRs6382WSX6Bdk/AQ==);strokeColor=none;strokeWidth=0;spacingTop=-3;spacingBottom=-3;spacingLeft=-3;spacingRight=-3;points=[[0,0.5,0],[1,0.5,0],[0.5,1,0],[0.5,0,0]];labelBackgroundColor=none;rounded=1;html=1;whiteSpace=wrap;" parent="69" vertex="1">
          <mxGeometry width="367" height="29" as="geometry" />
        </mxCell>
        <mxCell id="71" value="&lt;div style=&quot;font-size: 1px&quot;&gt;&lt;p style=&quot;text-align:center;margin-left:0;margin-right:0;margin-top:0px;margin-bottom:0px;text-indent:0;vertical-align:middle;direction:ltr;&quot;&gt;&lt;font style=&quot;font-size:11.29px;font-family:Arial;color:#333333;direction:ltr;letter-spacing:0px;line-height:100%;opacity:1&quot;&gt;This chart and an editable template can be found at: www.sitwithariadne.com/dbt-crisis-survival-skills&lt;/font&gt;&lt;/p&gt;&lt;/div&gt;" style="text;vsdxID=69;fillColor=none;gradientColor=none;fillOpacity=0;strokeColor=none;strokeWidth=0;spacingTop=-3;spacingBottom=-3;spacingLeft=-3;spacingRight=-3;points=[[0,0.5,0],[1,0.5,0],[0.5,1,0],[0.5,0,0]];labelBackgroundColor=none;rounded=0;html=1;whiteSpace=wrap;verticalAlign=middle;align=center;overflow=width;;html=1;" parent="69" vertex="1">
          <mxGeometry x="3.18" y="2.42" width="361.32" height="23.5" as="geometry" />
        </mxCell>
      </root>
    </mxGraphModel>
  </diagram>
</mxfile>
